<?xml version="1.0" encoding="us-ascii" standalone="no"?><svg xmlns="http://www.w3.org/2000/svg" xmlns:xlink="http://www.w3.org/1999/xlink" contentStyleType="text/css" height="1223px" preserveAspectRatio="none" style="width:4823px;height:1223px;background:#FFFFFF;" version="1.1" viewBox="0 0 4823 1223" width="4823px" zoomAndPan="magnify"><defs/><g><!--cluster shay--><g id="cluster_shay"><path d="M8.5,338.0137 L41.5,338.0137 A3.75,3.75 0 0 1 44,340.5137 L51,362.6348 L4813.5,362.6348 A2.5,2.5 0 0 1 4816,365.1348 L4816,1214.0137 A2.5,2.5 0 0 1 4813.5,1216.5137 L8.5,1216.5137 A2.5,2.5 0 0 1 6,1214.0137 L6,340.5137 A2.5,2.5 0 0 1 8.5,338.0137 " fill="none" style="stroke:#000000;stroke-width:1.5;"/><line style="stroke:#000000;stroke-width:1.5;" x1="6" x2="51" y1="362.6348" y2="362.6348"/><text fill="#000000" font-family="sans-serif" font-size="14" font-weight="bold" lengthAdjust="spacing" textLength="32" x="10" y="355.1211">shay</text></g><!--cluster finalproject--><g id="cluster_finalproject"><path d="M32.5,383.0137 L113.5,383.0137 A3.75,3.75 0 0 1 116,385.5137 L123,407.6348 L4789.5,407.6348 A2.5,2.5 0 0 1 4792,410.1348 L4792,1190.0137 A2.5,2.5 0 0 1 4789.5,1192.5137 L32.5,1192.5137 A2.5,2.5 0 0 1 30,1190.0137 L30,385.5137 A2.5,2.5 0 0 1 32.5,383.0137 " fill="none" style="stroke:#000000;stroke-width:1.5;"/><line style="stroke:#000000;stroke-width:1.5;" x1="30" x2="123" y1="407.6348" y2="407.6348"/><text fill="#000000" font-family="sans-serif" font-size="14" font-weight="bold" lengthAdjust="spacing" textLength="80" x="34" y="400.1211">finalproject</text></g><!--cluster webcraeler--><g id="cluster_webcraeler"><path d="M296.5,428.0137 L376.5,428.0137 A3.75,3.75 0 0 1 379,430.5137 L386,452.6348 L4481.5,452.6348 A2.5,2.5 0 0 1 4484,455.1348 L4484,1166.0137 A2.5,2.5 0 0 1 4481.5,1168.5137 L296.5,1168.5137 A2.5,2.5 0 0 1 294,1166.0137 L294,430.5137 A2.5,2.5 0 0 1 296.5,428.0137 " fill="none" style="stroke:#000000;stroke-width:1.5;"/><line style="stroke:#000000;stroke-width:1.5;" x1="294" x2="386" y1="452.6348" y2="452.6348"/><text fill="#000000" font-family="sans-serif" font-size="14" font-weight="bold" lengthAdjust="spacing" textLength="79" x="298" y="445.1211">webcraeler</text></g><!--cluster crawlers--><g id="cluster_crawlers"><path d="M1421.5,473.0137 L1482.5,473.0137 A3.75,3.75 0 0 1 1485,475.5137 L1492,497.6348 L3067.5,497.6348 A2.5,2.5 0 0 1 3070,500.1348 L3070,1142.0137 A2.5,2.5 0 0 1 3067.5,1144.5137 L1421.5,1144.5137 A2.5,2.5 0 0 1 1419,1142.0137 L1419,475.5137 A2.5,2.5 0 0 1 1421.5,473.0137 " fill="none" style="stroke:#000000;stroke-width:1.5;"/><line style="stroke:#000000;stroke-width:1.5;" x1="1419" x2="1492" y1="497.6348" y2="497.6348"/><text fill="#000000" font-family="sans-serif" font-size="14" font-weight="bold" lengthAdjust="spacing" textLength="60" x="1423" y="490.1211">crawlers</text></g><!--cluster linktracker--><g id="cluster_linktracker"><path d="M1771.5,762.5137 L1847.5,762.5137 A3.75,3.75 0 0 1 1850,765.0137 L1857,787.1348 L2201.5,787.1348 A2.5,2.5 0 0 1 2204,789.6348 L2204,1118.0137 A2.5,2.5 0 0 1 2201.5,1120.5137 L1771.5,1120.5137 A2.5,2.5 0 0 1 1769,1118.0137 L1769,765.0137 A2.5,2.5 0 0 1 1771.5,762.5137 " fill="none" style="stroke:#000000;stroke-width:1.5;"/><line style="stroke:#000000;stroke-width:1.5;" x1="1769" x2="1857" y1="787.1348" y2="787.1348"/><text fill="#000000" font-family="sans-serif" font-size="14" font-weight="bold" lengthAdjust="spacing" textLength="75" x="1773" y="779.6211">linktracker</text></g><!--cluster limiter--><g id="cluster_limiter"><path d="M2230.5,518.0137 L2275.5,518.0137 A3.75,3.75 0 0 1 2278,520.5137 L2285,542.6348 L3043.5,542.6348 A2.5,2.5 0 0 1 3046,545.1348 L3046,1118.0137 A2.5,2.5 0 0 1 3043.5,1120.5137 L2230.5,1120.5137 A2.5,2.5 0 0 1 2228,1118.0137 L2228,520.5137 A2.5,2.5 0 0 1 2230.5,518.0137 " fill="none" style="stroke:#000000;stroke-width:1.5;"/><line style="stroke:#000000;stroke-width:1.5;" x1="2228" x2="2285" y1="542.6348" y2="542.6348"/><text fill="#000000" font-family="sans-serif" font-size="14" font-weight="bold" lengthAdjust="spacing" textLength="44" x="2232" y="535.1211">limiter</text></g><!--cluster interfaces--><g id="cluster_interfaces"><path d="M2435.5,563.0137 L2507.5,563.0137 A3.75,3.75 0 0 1 2510,565.5137 L2517,587.6348 L2838.5,587.6348 A2.5,2.5 0 0 1 2841,590.1348 L2841,982.0137 A2.5,2.5 0 0 1 2838.5,984.5137 L2435.5,984.5137 A2.5,2.5 0 0 1 2433,982.0137 L2433,565.5137 A2.5,2.5 0 0 1 2435.5,563.0137 " fill="none" style="stroke:#000000;stroke-width:1.5;"/><line style="stroke:#000000;stroke-width:1.5;" x1="2433" x2="2517" y1="587.6348" y2="587.6348"/><text fill="#000000" font-family="sans-serif" font-size="14" font-weight="bold" lengthAdjust="spacing" textLength="71" x="2437" y="580.1211">interfaces</text></g><!--cluster interfaces--><g id="cluster_interfaces"><path d="M1597.5,525.5137 L1669.5,525.5137 A3.75,3.75 0 0 1 1672,528.0137 L1679,550.1348 L1937.5,550.1348 A2.5,2.5 0 0 1 1940,552.6348 L1940,736.0137 A2.5,2.5 0 0 1 1937.5,738.5137 L1597.5,738.5137 A2.5,2.5 0 0 1 1595,736.0137 L1595,528.0137 A2.5,2.5 0 0 1 1597.5,525.5137 " fill="none" style="stroke:#000000;stroke-width:1.5;"/><line style="stroke:#000000;stroke-width:1.5;" x1="1595" x2="1679" y1="550.1348" y2="550.1348"/><text fill="#000000" font-family="sans-serif" font-size="14" font-weight="bold" lengthAdjust="spacing" textLength="71" x="1599" y="542.6211">interfaces</text></g><!--cluster extractor--><g id="cluster_extractor"><path d="M3096.5,518.0137 L3161.5,518.0137 A3.75,3.75 0 0 1 3164,520.5137 L3171,542.6348 L4457.5,542.6348 A2.5,2.5 0 0 1 4460,545.1348 L4460,944.5137 A2.5,2.5 0 0 1 4457.5,947.0137 L3096.5,947.0137 A2.5,2.5 0 0 1 3094,944.5137 L3094,520.5137 A2.5,2.5 0 0 1 3096.5,518.0137 " fill="none" style="stroke:#000000;stroke-width:1.5;"/><line style="stroke:#000000;stroke-width:1.5;" x1="3094" x2="3171" y1="542.6348" y2="542.6348"/><text fill="#000000" font-family="sans-serif" font-size="14" font-weight="bold" lengthAdjust="spacing" textLength="64" x="3098" y="535.1211">extractor</text></g><!--cluster interfaces--><g id="cluster_interfaces"><path d="M3305.5,563.0137 L3377.5,563.0137 A3.75,3.75 0 0 1 3380,565.5137 L3387,587.6348 L4433.5,587.6348 A2.5,2.5 0 0 1 4436,590.1348 L4436,698.5137 A2.5,2.5 0 0 1 4433.5,701.0137 L3305.5,701.0137 A2.5,2.5 0 0 1 3303,698.5137 L3303,565.5137 A2.5,2.5 0 0 1 3305.5,563.0137 " fill="none" style="stroke:#000000;stroke-width:1.5;"/><line style="stroke:#000000;stroke-width:1.5;" x1="3303" x2="3387" y1="587.6348" y2="587.6348"/><text fill="#000000" font-family="sans-serif" font-size="14" font-weight="bold" lengthAdjust="spacing" textLength="71" x="3307" y="580.1211">interfaces</text></g><!--cluster config--><g id="cluster_config"><path d="M517.5,572.0137 L562.5,572.0137 A3.75,3.75 0 0 1 565,574.5137 L572,596.6348 L904.5,596.6348 A2.5,2.5 0 0 1 907,599.1348 L907,689.5137 A2.5,2.5 0 0 1 904.5,692.0137 L517.5,692.0137 A2.5,2.5 0 0 1 515,689.5137 L515,574.5137 A2.5,2.5 0 0 1 517.5,572.0137 " fill="none" style="stroke:#000000;stroke-width:1.5;"/><line style="stroke:#000000;stroke-width:1.5;" x1="515" x2="572" y1="596.6348" y2="596.6348"/><text fill="#000000" font-family="sans-serif" font-size="14" font-weight="bold" lengthAdjust="spacing" textLength="44" x="519" y="589.1211">config</text></g><!--cluster event--><g id="cluster_event"><path d="M933.5,553.5137 L975.5,553.5137 A3.75,3.75 0 0 1 978,556.0137 L985,578.1348 L1392.5,578.1348 A2.5,2.5 0 0 1 1395,580.6348 L1395,708.0137 A2.5,2.5 0 0 1 1392.5,710.5137 L933.5,710.5137 A2.5,2.5 0 0 1 931,708.0137 L931,556.0137 A2.5,2.5 0 0 1 933.5,553.5137 " fill="none" style="stroke:#000000;stroke-width:1.5;"/><line style="stroke:#000000;stroke-width:1.5;" x1="931" x2="985" y1="578.1348" y2="578.1348"/><text fill="#000000" font-family="sans-serif" font-size="14" font-weight="bold" lengthAdjust="spacing" textLength="41" x="935" y="570.6211">event</text></g><!--cluster extractor--><g id="cluster_extractor"><path d="M4510.5,544.5137 L4575.5,544.5137 A3.75,3.75 0 0 1 4578,547.0137 L4585,569.1348 L4765.5,569.1348 A2.5,2.5 0 0 1 4768,571.6348 L4768,717.0137 A2.5,2.5 0 0 1 4765.5,719.5137 L4510.5,719.5137 A2.5,2.5 0 0 1 4508,717.0137 L4508,547.0137 A2.5,2.5 0 0 1 4510.5,544.5137 " fill="none" style="stroke:#000000;stroke-width:1.5;"/><line style="stroke:#000000;stroke-width:1.5;" x1="4508" x2="4585" y1="569.1348" y2="569.1348"/><text fill="#000000" font-family="sans-serif" font-size="14" font-weight="bold" lengthAdjust="spacing" textLength="64" x="4512" y="561.6211">extractor</text></g><!--cluster controller--><g id="cluster_controller"><path d="M56.5,536.5137 L126.5,536.5137 A3.75,3.75 0 0 1 129,539.0137 L136,561.1348 L267.5,561.1348 A2.5,2.5 0 0 1 270,563.6348 L270,704.0137 A2.5,2.5 0 0 1 267.5,706.5137 L56.5,706.5137 A2.5,2.5 0 0 1 54,704.0137 L54,539.0137 A2.5,2.5 0 0 1 56.5,536.5137 " fill="none" style="stroke:#000000;stroke-width:1.5;"/><line style="stroke:#000000;stroke-width:1.5;" x1="54" x2="136" y1="561.1348" y2="561.1348"/><text fill="#000000" font-family="sans-serif" font-size="14" font-weight="bold" lengthAdjust="spacing" textLength="69" x="58" y="553.6211">controller</text></g><!--cluster infrastructure--><g id="cluster_infrastructure"><path d="M80.5,581.5137 L178.5,581.5137 A3.75,3.75 0 0 1 181,584.0137 L188,606.1348 L243.5,606.1348 A2.5,2.5 0 0 1 246,608.6348 L246,680.0137 A2.5,2.5 0 0 1 243.5,682.5137 L80.5,682.5137 A2.5,2.5 0 0 1 78,680.0137 L78,584.0137 A2.5,2.5 0 0 1 80.5,581.5137 " fill="none" style="stroke:#000000;stroke-width:1.5;"/><line style="stroke:#000000;stroke-width:1.5;" x1="78" x2="188" y1="606.1348" y2="606.1348"/><text fill="#000000" font-family="sans-serif" font-size="14" font-weight="bold" lengthAdjust="spacing" textLength="97" x="82" y="598.6211">infrastructure</text></g><!--cluster org--><g id="cluster_org"><path d="M781.5,6.0137 L806.5,6.0137 A3.75,3.75 0 0 1 809,8.5137 L816,30.6348 L1284.5,30.6348 A2.5,2.5 0 0 1 1287,33.1348 L1287,311.5137 A2.5,2.5 0 0 1 1284.5,314.0137 L781.5,314.0137 A2.5,2.5 0 0 1 779,311.5137 L779,8.5137 A2.5,2.5 0 0 1 781.5,6.0137 " fill="none" style="stroke:#000000;stroke-width:1.5;"/><line style="stroke:#000000;stroke-width:1.5;" x1="779" x2="816" y1="30.6348" y2="30.6348"/><text fill="#000000" font-family="sans-serif" font-size="14" font-weight="bold" lengthAdjust="spacing" textLength="24" x="783" y="23.1211">org</text></g><!--cluster springframework--><g id="cluster_springframework"><path d="M805.5,51.0137 L925.5,51.0137 A3.75,3.75 0 0 1 928,53.5137 L935,75.6348 L1260.5,75.6348 A2.5,2.5 0 0 1 1263,78.1348 L1263,287.5137 A2.5,2.5 0 0 1 1260.5,290.0137 L805.5,290.0137 A2.5,2.5 0 0 1 803,287.5137 L803,53.5137 A2.5,2.5 0 0 1 805.5,51.0137 " fill="none" style="stroke:#000000;stroke-width:1.5;"/><line style="stroke:#000000;stroke-width:1.5;" x1="803" x2="935" y1="75.6348" y2="75.6348"/><text fill="#000000" font-family="sans-serif" font-size="14" font-weight="bold" lengthAdjust="spacing" textLength="119" x="807" y="68.1211">springframework</text></g><!--cluster scheduling--><g id="cluster_scheduling"><path d="M829.5,96.0137 L908.5,96.0137 A3.75,3.75 0 0 1 911,98.5137 L918,120.6348 L1042.5,120.6348 A2.5,2.5 0 0 1 1045,123.1348 L1045,263.5137 A2.5,2.5 0 0 1 1042.5,266.0137 L829.5,266.0137 A2.5,2.5 0 0 1 827,263.5137 L827,98.5137 A2.5,2.5 0 0 1 829.5,96.0137 " fill="none" style="stroke:#000000;stroke-width:1.5;"/><line style="stroke:#000000;stroke-width:1.5;" x1="827" x2="918" y1="120.6348" y2="120.6348"/><text fill="#000000" font-family="sans-serif" font-size="14" font-weight="bold" lengthAdjust="spacing" textLength="78" x="831" y="113.1211">scheduling</text></g><!--cluster annotation--><g id="cluster_annotation"><path d="M853.5,141.0137 L929.5,141.0137 A3.75,3.75 0 0 1 932,143.5137 L939,165.6348 L1018.5,165.6348 A2.5,2.5 0 0 1 1021,168.1348 L1021,239.5137 A2.5,2.5 0 0 1 1018.5,242.0137 L853.5,242.0137 A2.5,2.5 0 0 1 851,239.5137 L851,143.5137 A2.5,2.5 0 0 1 853.5,141.0137 " fill="none" style="stroke:#000000;stroke-width:1.5;"/><line style="stroke:#000000;stroke-width:1.5;" x1="851" x2="939" y1="165.6348" y2="165.6348"/><text fill="#000000" font-family="sans-serif" font-size="14" font-weight="bold" lengthAdjust="spacing" textLength="75" x="855" y="158.1211">annotation</text></g><!--cluster context--><g id="cluster_context"><path d="M1071.5,141.0137 L1125.5,141.0137 A3.75,3.75 0 0 1 1128,143.5137 L1135,165.6348 L1236.5,165.6348 A2.5,2.5 0 0 1 1239,168.1348 L1239,239.5137 A2.5,2.5 0 0 1 1236.5,242.0137 L1071.5,242.0137 A2.5,2.5 0 0 1 1069,239.5137 L1069,143.5137 A2.5,2.5 0 0 1 1071.5,141.0137 " fill="none" style="stroke:#000000;stroke-width:1.5;"/><line style="stroke:#000000;stroke-width:1.5;" x1="1069" x2="1135" y1="165.6348" y2="165.6348"/><text fill="#000000" font-family="sans-serif" font-size="14" font-weight="bold" lengthAdjust="spacing" textLength="53" x="1073" y="158.1211">context</text></g><!--class Indexer--><g id="elem_Indexer"><rect codeLine="94" fill="#F1F1F1" height="85.2422" id="Indexer" rx="2.5" ry="2.5" style="stroke:#181818;stroke-width:0.5;" width="186" x="310" y="600.0137"/><ellipse cx="375.75" cy="616.0137" fill="#ADD1B2" rx="11" ry="11" style="stroke:#181818;stroke-width:1.0;"/><path d="M378.5156,611.8887 Q378.6719,611.6699 378.8594,611.5605 Q379.0469,611.4512 379.2656,611.4512 Q379.6406,611.4512 379.875,611.7168 Q380.1094,611.9668 380.1094,612.5762 L380.1094,614.0293 Q380.1094,614.6387 379.875,614.9043 Q379.6406,615.1699 379.2656,615.1699 Q378.9219,615.1699 378.7188,614.9668 Q378.5156,614.7793 378.4063,614.2637 Q378.3594,613.9043 378.1719,613.7168 Q377.8438,613.3418 377.2344,613.123 Q376.625,612.9043 376,612.9043 Q375.2344,612.9043 374.5938,613.2324 Q373.9688,613.5605 373.4688,614.3105 Q372.9844,615.0605 372.9844,616.0918 L372.9844,617.1855 Q372.9844,618.4199 373.875,619.248 Q374.7656,620.0605 376.3594,620.0605 Q377.2969,620.0605 377.9531,619.8105 Q378.3438,619.6543 378.7656,619.2168 Q379.0313,618.9512 379.1719,618.873 Q379.3281,618.7949 379.5313,618.7949 Q379.8594,618.7949 380.1094,619.0605 Q380.375,619.3105 380.375,619.6543 Q380.375,619.998 380.0313,620.4043 Q379.5313,620.9824 378.7344,621.3105 Q377.6563,621.7637 376.3594,621.7637 Q374.8438,621.7637 373.6406,621.1387 Q372.6563,620.6387 371.9688,619.5762 Q371.2813,618.498 371.2813,617.2168 L371.2813,616.0605 Q371.2813,614.7324 371.8906,613.5918 Q372.5156,612.4355 373.6094,611.8262 Q374.7031,611.2012 375.9375,611.2012 Q376.6719,611.2012 377.3125,611.373 Q377.9688,611.5293 378.5156,611.8887 Z " fill="#000000"/><text fill="#000000" font-family="sans-serif" font-size="14" lengthAdjust="spacing" textLength="46" x="396.25" y="621.8105">Indexer</text><line style="stroke:#181818;stroke-width:0.5;" x1="311" x2="495" y1="632.0137" y2="632.0137"/><line style="stroke:#181818;stroke-width:0.5;" x1="311" x2="495" y1="640.0137" y2="640.0137"/><ellipse cx="321" cy="654.8242" fill="#84BE84" rx="3" ry="3" style="stroke:#038048;stroke-width:1.0;"/><text fill="#000000" font-family="sans-serif" font-size="14" lengthAdjust="spacing" textLength="151" x="330" y="659.1211">void update(List&lt;T&gt;,URI)</text><ellipse cx="321" cy="673.4453" fill="#84BE84" rx="3" ry="3" style="stroke:#038048;stroke-width:1.0;"/><text fill="#000000" font-family="sans-serif" font-size="14" lengthAdjust="spacing" textLength="160" x="330" y="677.7422">LinkMap&lt;T&gt; getLinkMap()</text></g><!--class WebCrawler--><g id="elem_WebCrawler"><rect codeLine="56" fill="#F1F1F1" height="122.4844" id="WebCrawler" rx="2.5" ry="2.5" style="stroke:#181818;stroke-width:0.5;" width="317" x="1435.5" y="827.5137"/><ellipse cx="1551.25" cy="843.5137" fill="#ADD1B2" rx="11" ry="11" style="stroke:#181818;stroke-width:1.0;"/><path d="M1554.0156,839.3887 Q1554.1719,839.1699 1554.3594,839.0605 Q1554.5469,838.9512 1554.7656,838.9512 Q1555.1406,838.9512 1555.375,839.2168 Q1555.6094,839.4668 1555.6094,840.0762 L1555.6094,841.5293 Q1555.6094,842.1387 1555.375,842.4043 Q1555.1406,842.6699 1554.7656,842.6699 Q1554.4219,842.6699 1554.2188,842.4668 Q1554.0156,842.2793 1553.9063,841.7637 Q1553.8594,841.4043 1553.6719,841.2168 Q1553.3438,840.8418 1552.7344,840.623 Q1552.125,840.4043 1551.5,840.4043 Q1550.7344,840.4043 1550.0938,840.7324 Q1549.4688,841.0605 1548.9688,841.8105 Q1548.4844,842.5605 1548.4844,843.5918 L1548.4844,844.6855 Q1548.4844,845.9199 1549.375,846.748 Q1550.2656,847.5605 1551.8594,847.5605 Q1552.7969,847.5605 1553.4531,847.3105 Q1553.8438,847.1543 1554.2656,846.7168 Q1554.5313,846.4512 1554.6719,846.373 Q1554.8281,846.2949 1555.0313,846.2949 Q1555.3594,846.2949 1555.6094,846.5605 Q1555.875,846.8105 1555.875,847.1543 Q1555.875,847.498 1555.5313,847.9043 Q1555.0313,848.4824 1554.2344,848.8105 Q1553.1563,849.2637 1551.8594,849.2637 Q1550.3438,849.2637 1549.1406,848.6387 Q1548.1563,848.1387 1547.4688,847.0762 Q1546.7813,845.998 1546.7813,844.7168 L1546.7813,843.5605 Q1546.7813,842.2324 1547.3906,841.0918 Q1548.0156,839.9355 1549.1094,839.3262 Q1550.2031,838.7012 1551.4375,838.7012 Q1552.1719,838.7012 1552.8125,838.873 Q1553.4688,839.0293 1554.0156,839.3887 Z " fill="#000000"/><text fill="#000000" font-family="sans-serif" font-size="14" lengthAdjust="spacing" textLength="77" x="1571.75" y="849.3105">WebCrawler</text><line style="stroke:#181818;stroke-width:0.5;" x1="1436.5" x2="1751.5" y1="859.5137" y2="859.5137"/><line style="stroke:#181818;stroke-width:0.5;" x1="1436.5" x2="1751.5" y1="867.5137" y2="867.5137"/><ellipse cx="1446.5" cy="882.3242" fill="#84BE84" rx="3" ry="3" style="stroke:#038048;stroke-width:1.0;"/><text fill="#000000" font-family="sans-serif" font-size="14" lengthAdjust="spacing" textLength="67" x="1455.5" y="886.6211">void crawl()</text><ellipse cx="1446.5" cy="900.9453" fill="#84BE84" rx="3" ry="3" style="stroke:#038048;stroke-width:1.0;"/><text fill="#000000" font-family="sans-serif" font-size="14" lengthAdjust="spacing" textLength="94" x="1455.5" y="905.2422">void endCrawl()</text><polygon fill="#FFFF44" points="1446.5,914.5664,1450.5,918.5664,1446.5,922.5664,1442.5,918.5664" style="stroke:#B38D22;stroke-width:1.0;"/><text fill="#000000" font-family="sans-serif" font-size="14" lengthAdjust="spacing" textLength="291" x="1455.5" y="923.8633">List&lt;String&gt; extractedTextToWords(Document)</text><ellipse cx="1446.5" cy="938.1875" fill="#84BE84" rx="3" ry="3" style="stroke:#038048;stroke-width:1.0;"/><text fill="#000000" font-family="sans-serif" font-size="14" lengthAdjust="spacing" textLength="141" x="1455.5" y="942.4844">Statistics getStatistics()</text></g><!--class AbstractVisitedTrackerDeque--><g id="elem_AbstractVisitedTrackerDeque"><rect codeLine="1" fill="#F1F1F1" height="178.3477" id="AbstractVisitedTrackerDeque" rx="2.5" ry="2.5" style="stroke:#181818;stroke-width:0.5;" width="218" x="1788" y="799.5137"/><ellipse cx="1803" cy="815.5137" fill="#A9DCDF" rx="11" ry="11" style="stroke:#181818;stroke-width:1.0;"/><path d="M1805.1875,817.2793 L1801.0469,817.2793 L1800.625,818.3105 L1801.0469,818.3105 Q1801.6563,818.3105 1801.9219,818.5449 Q1802.1875,818.7793 1802.1875,819.1699 Q1802.1875,819.5449 1801.9219,819.7793 Q1801.6563,820.0137 1801.0469,820.0137 L1798.75,820.0137 Q1798.1406,820.0137 1797.8906,819.7793 Q1797.625,819.5449 1797.625,819.1543 Q1797.625,818.7793 1797.9063,818.5449 Q1798.1719,818.2949 1798.7969,818.3105 L1801.4688,811.6543 L1800.3594,811.6543 Q1799.75,811.6543 1799.4844,811.4199 Q1799.2188,811.1855 1799.2188,810.7949 Q1799.2188,810.4199 1799.4844,810.1855 Q1799.75,809.9512 1800.3594,809.9512 L1804.0313,809.9512 L1807.4219,818.3105 Q1808.0156,818.3105 1808.2031,818.4512 Q1808.5938,818.7168 1808.5938,819.1699 Q1808.5938,819.5449 1808.3281,819.7793 Q1808.0781,820.0137 1807.4688,820.0137 L1805.1719,820.0137 Q1804.5625,820.0137 1804.2969,819.7793 Q1804.0313,819.5449 1804.0313,819.1543 Q1804.0313,818.7793 1804.2969,818.5449 Q1804.5625,818.3105 1805.1719,818.3105 L1805.5938,818.3105 L1805.1875,817.2793 Z M1804.4688,815.5762 L1803.1094,812.2012 L1801.7344,815.5762 L1804.4688,815.5762 Z " fill="#000000"/><text fill="#000000" font-family="sans-serif" font-size="14" font-style="italic" lengthAdjust="spacing" textLength="186" x="1817" y="821.3105">AbstractVisitedTrackerDeque</text><line style="stroke:#181818;stroke-width:0.5;" x1="1789" x2="2005" y1="831.5137" y2="831.5137"/><polygon fill="none" points="1799,841.3242,1803,845.3242,1799,849.3242,1795,845.3242" style="stroke:#B38D22;stroke-width:1.0;"/><text fill="#000000" font-family="sans-serif" font-size="14" lengthAdjust="spacing" textLength="167" x="1808" y="850.6211">Deque&lt;URI&gt; m_urlsToVisit</text><line style="stroke:#181818;stroke-width:0.5;" x1="1789" x2="2005" y1="858.1348" y2="858.1348"/><ellipse cx="1799" cy="872.9453" fill="#84BE84" rx="3" ry="3" style="stroke:#038048;stroke-width:1.0;"/><text fill="#000000" font-family="sans-serif" font-size="14" lengthAdjust="spacing" textLength="106" x="1808" y="877.2422">boolean add(URI)</text><ellipse cx="1799" cy="891.5664" fill="#84BE84" rx="3" ry="3" style="stroke:#038048;stroke-width:1.0;"/><text fill="#000000" font-family="sans-serif" font-size="14" font-style="italic" lengthAdjust="spacing" textLength="160" x="1808" y="895.8633">boolean addAll(Set&lt;URI&gt;)</text><ellipse cx="1799" cy="910.1875" fill="#84BE84" rx="3" ry="3" style="stroke:#038048;stroke-width:1.0;"/><text fill="#000000" font-family="sans-serif" font-size="14" lengthAdjust="spacing" textLength="109" x="1808" y="914.4844">boolean isEmpty()</text><ellipse cx="1799" cy="928.8086" fill="#84BE84" rx="3" ry="3" style="stroke:#038048;stroke-width:1.0;"/><text fill="#000000" font-family="sans-serif" font-size="14" lengthAdjust="spacing" textLength="135" x="1808" y="933.1055">boolean contains(URI)</text><ellipse cx="1799" cy="947.4297" fill="#84BE84" rx="3" ry="3" style="stroke:#038048;stroke-width:1.0;"/><text fill="#000000" font-family="sans-serif" font-size="14" lengthAdjust="spacing" textLength="53" x="1808" y="951.7266">URI poll()</text><ellipse cx="1799" cy="966.0508" fill="#84BE84" rx="3" ry="3" style="stroke:#038048;stroke-width:1.0;"/><text fill="#000000" font-family="sans-serif" font-size="14" lengthAdjust="spacing" textLength="48" x="1808" y="970.3477">int size()</text></g><!--class AddAllDfs--><g id="elem_AddAllDfs"><rect codeLine="14" fill="#F1F1F1" height="66.6211" id="AddAllDfs" rx="2.5" ry="2.5" style="stroke:#181818;stroke-width:0.5;" width="184" x="1785" y="1037.5137"/><ellipse cx="1842.25" cy="1053.5137" fill="#ADD1B2" rx="11" ry="11" style="stroke:#181818;stroke-width:1.0;"/><path d="M1845.0156,1049.3887 Q1845.1719,1049.1699 1845.3594,1049.0605 Q1845.5469,1048.9512 1845.7656,1048.9512 Q1846.1406,1048.9512 1846.375,1049.2168 Q1846.6094,1049.4668 1846.6094,1050.0762 L1846.6094,1051.5293 Q1846.6094,1052.1387 1846.375,1052.4043 Q1846.1406,1052.6699 1845.7656,1052.6699 Q1845.4219,1052.6699 1845.2188,1052.4668 Q1845.0156,1052.2793 1844.9063,1051.7637 Q1844.8594,1051.4043 1844.6719,1051.2168 Q1844.3438,1050.8418 1843.7344,1050.623 Q1843.125,1050.4043 1842.5,1050.4043 Q1841.7344,1050.4043 1841.0938,1050.7324 Q1840.4688,1051.0605 1839.9688,1051.8105 Q1839.4844,1052.5605 1839.4844,1053.5918 L1839.4844,1054.6855 Q1839.4844,1055.9199 1840.375,1056.748 Q1841.2656,1057.5605 1842.8594,1057.5605 Q1843.7969,1057.5605 1844.4531,1057.3105 Q1844.8438,1057.1543 1845.2656,1056.7168 Q1845.5313,1056.4512 1845.6719,1056.373 Q1845.8281,1056.2949 1846.0313,1056.2949 Q1846.3594,1056.2949 1846.6094,1056.5605 Q1846.875,1056.8105 1846.875,1057.1543 Q1846.875,1057.498 1846.5313,1057.9043 Q1846.0313,1058.4824 1845.2344,1058.8105 Q1844.1563,1059.2637 1842.8594,1059.2637 Q1841.3438,1059.2637 1840.1406,1058.6387 Q1839.1563,1058.1387 1838.4688,1057.0762 Q1837.7813,1055.998 1837.7813,1054.7168 L1837.7813,1053.5605 Q1837.7813,1052.2324 1838.3906,1051.0918 Q1839.0156,1049.9355 1840.1094,1049.3262 Q1841.2031,1048.7012 1842.4375,1048.7012 Q1843.1719,1048.7012 1843.8125,1048.873 Q1844.4688,1049.0293 1845.0156,1049.3887 Z " fill="#000000"/><text fill="#000000" font-family="sans-serif" font-size="14" lengthAdjust="spacing" textLength="61" x="1862.75" y="1059.3105">AddAllDfs</text><line style="stroke:#181818;stroke-width:0.5;" x1="1786" x2="1968" y1="1069.5137" y2="1069.5137"/><line style="stroke:#181818;stroke-width:0.5;" x1="1786" x2="1968" y1="1077.5137" y2="1077.5137"/><ellipse cx="1796" cy="1092.3242" fill="#84BE84" rx="3" ry="3" style="stroke:#038048;stroke-width:1.0;"/><text fill="#000000" font-family="sans-serif" font-size="14" lengthAdjust="spacing" textLength="158" x="1805" y="1096.6211">boolean addAll(Set&lt;URI&gt;)</text></g><!--class AddAllBfs--><g id="elem_AddAllBfs"><rect codeLine="31" fill="#F1F1F1" height="66.6211" id="AddAllBfs" rx="2.5" ry="2.5" style="stroke:#181818;stroke-width:0.5;" width="184" x="2004" y="1037.5137"/><ellipse cx="2061.75" cy="1053.5137" fill="#ADD1B2" rx="11" ry="11" style="stroke:#181818;stroke-width:1.0;"/><path d="M2064.5156,1049.3887 Q2064.6719,1049.1699 2064.8594,1049.0605 Q2065.0469,1048.9512 2065.2656,1048.9512 Q2065.6406,1048.9512 2065.875,1049.2168 Q2066.1094,1049.4668 2066.1094,1050.0762 L2066.1094,1051.5293 Q2066.1094,1052.1387 2065.875,1052.4043 Q2065.6406,1052.6699 2065.2656,1052.6699 Q2064.9219,1052.6699 2064.7188,1052.4668 Q2064.5156,1052.2793 2064.4063,1051.7637 Q2064.3594,1051.4043 2064.1719,1051.2168 Q2063.8438,1050.8418 2063.2344,1050.623 Q2062.625,1050.4043 2062,1050.4043 Q2061.2344,1050.4043 2060.5938,1050.7324 Q2059.9688,1051.0605 2059.4688,1051.8105 Q2058.9844,1052.5605 2058.9844,1053.5918 L2058.9844,1054.6855 Q2058.9844,1055.9199 2059.875,1056.748 Q2060.7656,1057.5605 2062.3594,1057.5605 Q2063.2969,1057.5605 2063.9531,1057.3105 Q2064.3438,1057.1543 2064.7656,1056.7168 Q2065.0313,1056.4512 2065.1719,1056.373 Q2065.3281,1056.2949 2065.5313,1056.2949 Q2065.8594,1056.2949 2066.1094,1056.5605 Q2066.375,1056.8105 2066.375,1057.1543 Q2066.375,1057.498 2066.0313,1057.9043 Q2065.5313,1058.4824 2064.7344,1058.8105 Q2063.6563,1059.2637 2062.3594,1059.2637 Q2060.8438,1059.2637 2059.6406,1058.6387 Q2058.6563,1058.1387 2057.9688,1057.0762 Q2057.2813,1055.998 2057.2813,1054.7168 L2057.2813,1053.5605 Q2057.2813,1052.2324 2057.8906,1051.0918 Q2058.5156,1049.9355 2059.6094,1049.3262 Q2060.7031,1048.7012 2061.9375,1048.7012 Q2062.6719,1048.7012 2063.3125,1048.873 Q2063.9688,1049.0293 2064.5156,1049.3887 Z " fill="#000000"/><text fill="#000000" font-family="sans-serif" font-size="14" lengthAdjust="spacing" textLength="60" x="2082.25" y="1059.3105">AddAllBfs</text><line style="stroke:#181818;stroke-width:0.5;" x1="2005" x2="2187" y1="1069.5137" y2="1069.5137"/><line style="stroke:#181818;stroke-width:0.5;" x1="2005" x2="2187" y1="1077.5137" y2="1077.5137"/><ellipse cx="2015" cy="1092.3242" fill="#84BE84" rx="3" ry="3" style="stroke:#038048;stroke-width:1.0;"/><text fill="#000000" font-family="sans-serif" font-size="14" lengthAdjust="spacing" textLength="158" x="2024" y="1096.6211">boolean addAll(Set&lt;URI&gt;)</text></g><!--class DfsLimiter--><g id="elem_DfsLimiter"><rect codeLine="37" fill="#F1F1F1" height="66.6211" id="DfsLimiter" rx="2.5" ry="2.5" style="stroke:#181818;stroke-width:0.5;" width="375" x="2244.5" y="1037.5137"/><ellipse cx="2396.25" cy="1053.5137" fill="#ADD1B2" rx="11" ry="11" style="stroke:#181818;stroke-width:1.0;"/><path d="M2399.0156,1049.3887 Q2399.1719,1049.1699 2399.3594,1049.0605 Q2399.5469,1048.9512 2399.7656,1048.9512 Q2400.1406,1048.9512 2400.375,1049.2168 Q2400.6094,1049.4668 2400.6094,1050.0762 L2400.6094,1051.5293 Q2400.6094,1052.1387 2400.375,1052.4043 Q2400.1406,1052.6699 2399.7656,1052.6699 Q2399.4219,1052.6699 2399.2188,1052.4668 Q2399.0156,1052.2793 2398.9063,1051.7637 Q2398.8594,1051.4043 2398.6719,1051.2168 Q2398.3438,1050.8418 2397.7344,1050.623 Q2397.125,1050.4043 2396.5,1050.4043 Q2395.7344,1050.4043 2395.0938,1050.7324 Q2394.4688,1051.0605 2393.9688,1051.8105 Q2393.4844,1052.5605 2393.4844,1053.5918 L2393.4844,1054.6855 Q2393.4844,1055.9199 2394.375,1056.748 Q2395.2656,1057.5605 2396.8594,1057.5605 Q2397.7969,1057.5605 2398.4531,1057.3105 Q2398.8438,1057.1543 2399.2656,1056.7168 Q2399.5313,1056.4512 2399.6719,1056.373 Q2399.8281,1056.2949 2400.0313,1056.2949 Q2400.3594,1056.2949 2400.6094,1056.5605 Q2400.875,1056.8105 2400.875,1057.1543 Q2400.875,1057.498 2400.5313,1057.9043 Q2400.0313,1058.4824 2399.2344,1058.8105 Q2398.1563,1059.2637 2396.8594,1059.2637 Q2395.3438,1059.2637 2394.1406,1058.6387 Q2393.1563,1058.1387 2392.4688,1057.0762 Q2391.7813,1055.998 2391.7813,1054.7168 L2391.7813,1053.5605 Q2391.7813,1052.2324 2392.3906,1051.0918 Q2393.0156,1049.9355 2394.1094,1049.3262 Q2395.2031,1048.7012 2396.4375,1048.7012 Q2397.1719,1048.7012 2397.8125,1048.873 Q2398.4688,1049.0293 2399.0156,1049.3887 Z " fill="#000000"/><text fill="#000000" font-family="sans-serif" font-size="14" lengthAdjust="spacing" textLength="63" x="2416.75" y="1059.3105">DfsLimiter</text><line style="stroke:#181818;stroke-width:0.5;" x1="2245.5" x2="2618.5" y1="1069.5137" y2="1069.5137"/><line style="stroke:#181818;stroke-width:0.5;" x1="2245.5" x2="2618.5" y1="1077.5137" y2="1077.5137"/><ellipse cx="2255.5" cy="1092.3242" fill="#84BE84" rx="3" ry="3" style="stroke:#038048;stroke-width:1.0;"/><text fill="#000000" font-family="sans-serif" font-size="14" lengthAdjust="spacing" textLength="349" x="2264.5" y="1096.6211">boolean continueProcessing(VisitedLinkTracker,long,int)</text></g><!--class BfsLimiter--><g id="elem_BfsLimiter"><rect codeLine="81" fill="#F1F1F1" height="66.6211" id="BfsLimiter" rx="2.5" ry="2.5" style="stroke:#181818;stroke-width:0.5;" width="375" x="2654.5" y="1037.5137"/><ellipse cx="2806.75" cy="1053.5137" fill="#ADD1B2" rx="11" ry="11" style="stroke:#181818;stroke-width:1.0;"/><path d="M2809.5156,1049.3887 Q2809.6719,1049.1699 2809.8594,1049.0605 Q2810.0469,1048.9512 2810.2656,1048.9512 Q2810.6406,1048.9512 2810.875,1049.2168 Q2811.1094,1049.4668 2811.1094,1050.0762 L2811.1094,1051.5293 Q2811.1094,1052.1387 2810.875,1052.4043 Q2810.6406,1052.6699 2810.2656,1052.6699 Q2809.9219,1052.6699 2809.7188,1052.4668 Q2809.5156,1052.2793 2809.4063,1051.7637 Q2809.3594,1051.4043 2809.1719,1051.2168 Q2808.8438,1050.8418 2808.2344,1050.623 Q2807.625,1050.4043 2807,1050.4043 Q2806.2344,1050.4043 2805.5938,1050.7324 Q2804.9688,1051.0605 2804.4688,1051.8105 Q2803.9844,1052.5605 2803.9844,1053.5918 L2803.9844,1054.6855 Q2803.9844,1055.9199 2804.875,1056.748 Q2805.7656,1057.5605 2807.3594,1057.5605 Q2808.2969,1057.5605 2808.9531,1057.3105 Q2809.3438,1057.1543 2809.7656,1056.7168 Q2810.0313,1056.4512 2810.1719,1056.373 Q2810.3281,1056.2949 2810.5313,1056.2949 Q2810.8594,1056.2949 2811.1094,1056.5605 Q2811.375,1056.8105 2811.375,1057.1543 Q2811.375,1057.498 2811.0313,1057.9043 Q2810.5313,1058.4824 2809.7344,1058.8105 Q2808.6563,1059.2637 2807.3594,1059.2637 Q2805.8438,1059.2637 2804.6406,1058.6387 Q2803.6563,1058.1387 2802.9688,1057.0762 Q2802.2813,1055.998 2802.2813,1054.7168 L2802.2813,1053.5605 Q2802.2813,1052.2324 2802.8906,1051.0918 Q2803.5156,1049.9355 2804.6094,1049.3262 Q2805.7031,1048.7012 2806.9375,1048.7012 Q2807.6719,1048.7012 2808.3125,1048.873 Q2808.9688,1049.0293 2809.5156,1049.3887 Z " fill="#000000"/><text fill="#000000" font-family="sans-serif" font-size="14" lengthAdjust="spacing" textLength="62" x="2827.25" y="1059.3105">BfsLimiter</text><line style="stroke:#181818;stroke-width:0.5;" x1="2655.5" x2="3028.5" y1="1069.5137" y2="1069.5137"/><line style="stroke:#181818;stroke-width:0.5;" x1="2655.5" x2="3028.5" y1="1077.5137" y2="1077.5137"/><ellipse cx="2665.5" cy="1092.3242" fill="#84BE84" rx="3" ry="3" style="stroke:#038048;stroke-width:1.0;"/><text fill="#000000" font-family="sans-serif" font-size="14" lengthAdjust="spacing" textLength="349" x="2674.5" y="1096.6211">boolean continueProcessing(VisitedLinkTracker,long,int)</text></g><!--class Limiter--><g id="elem_Limiter"><rect codeLine="10" fill="#F1F1F1" height="85.2422" id="Limiter" rx="2.5" ry="2.5" style="stroke:#181818;stroke-width:0.5;" width="375" x="2449.5" y="600.0137"/><ellipse cx="2611.75" cy="616.0137" fill="#B4A7E5" rx="11" ry="11" style="stroke:#181818;stroke-width:1.0;"/><path d="M2612.7031,612.6543 L2612.7031,619.3105 L2614.4219,619.3105 Q2615.0313,619.3105 2615.2969,619.5449 Q2615.5625,619.7793 2615.5625,620.1699 Q2615.5625,620.5449 2615.2969,620.7793 Q2615.0313,621.0137 2614.4219,621.0137 L2609.2813,621.0137 Q2608.6719,621.0137 2608.4063,620.7793 Q2608.1406,620.5449 2608.1406,620.1543 Q2608.1406,619.7793 2608.4063,619.5449 Q2608.6719,619.3105 2609.2813,619.3105 L2611,619.3105 L2611,612.6543 L2609.2813,612.6543 Q2608.6719,612.6543 2608.4063,612.4199 Q2608.1406,612.1855 2608.1406,611.7949 Q2608.1406,611.4199 2608.4063,611.1855 Q2608.6719,610.9512 2609.2813,610.9512 L2614.4219,610.9512 Q2615.0313,610.9512 2615.2969,611.1855 Q2615.5625,611.4199 2615.5625,611.7949 Q2615.5625,612.1855 2615.2969,612.4199 Q2615.0313,612.6543 2614.4219,612.6543 L2612.7031,612.6543 Z " fill="#000000"/><text fill="#000000" font-family="sans-serif" font-size="14" font-style="italic" lengthAdjust="spacing" textLength="42" x="2632.25" y="621.8105">Limiter</text><line style="stroke:#181818;stroke-width:0.5;" x1="2450.5" x2="2823.5" y1="632.0137" y2="632.0137"/><line style="stroke:#181818;stroke-width:0.5;" x1="2450.5" x2="2823.5" y1="640.0137" y2="640.0137"/><polygon fill="#4177AF" points="2460.5,650.8242,2456.5,656.8242,2464.5,656.8242" style="stroke:#1963A0;stroke-width:1.0;"/><text fill="#000000" font-family="sans-serif" font-size="14" lengthAdjust="spacing" textLength="349" x="2469.5" y="659.1211">boolean continueProcessing(VisitedLinkTracker,long,int)</text><polygon fill="#4177AF" points="2460.5,669.4453,2456.5,675.4453,2464.5,675.4453" style="stroke:#1963A0;stroke-width:1.0;"/><text fill="#000000" font-family="sans-serif" font-size="14" lengthAdjust="spacing" textLength="82" x="2469.5" y="677.7422">int getDepth()</text></g><!--class AbstractLimiter--><g id="elem_AbstractLimiter"><rect codeLine="73" fill="#F1F1F1" height="159.7266" id="AbstractLimiter" rx="2.5" ry="2.5" style="stroke:#181818;stroke-width:0.5;" width="182" x="2546" y="808.5137"/><ellipse cx="2586.2" cy="824.5137" fill="#A9DCDF" rx="11" ry="11" style="stroke:#181818;stroke-width:1.0;"/><path d="M2588.3875,826.2793 L2584.2469,826.2793 L2583.825,827.3105 L2584.2469,827.3105 Q2584.8563,827.3105 2585.1219,827.5449 Q2585.3875,827.7793 2585.3875,828.1699 Q2585.3875,828.5449 2585.1219,828.7793 Q2584.8563,829.0137 2584.2469,829.0137 L2581.95,829.0137 Q2581.3406,829.0137 2581.0906,828.7793 Q2580.825,828.5449 2580.825,828.1543 Q2580.825,827.7793 2581.1063,827.5449 Q2581.3719,827.2949 2581.9969,827.3105 L2584.6688,820.6543 L2583.5594,820.6543 Q2582.95,820.6543 2582.6844,820.4199 Q2582.4188,820.1855 2582.4188,819.7949 Q2582.4188,819.4199 2582.6844,819.1855 Q2582.95,818.9512 2583.5594,818.9512 L2587.2313,818.9512 L2590.6219,827.3105 Q2591.2156,827.3105 2591.4031,827.4512 Q2591.7938,827.7168 2591.7938,828.1699 Q2591.7938,828.5449 2591.5281,828.7793 Q2591.2781,829.0137 2590.6688,829.0137 L2588.3719,829.0137 Q2587.7625,829.0137 2587.4969,828.7793 Q2587.2313,828.5449 2587.2313,828.1543 Q2587.2313,827.7793 2587.4969,827.5449 Q2587.7625,827.3105 2588.3719,827.3105 L2588.7938,827.3105 L2588.3875,826.2793 Z M2587.6688,824.5762 L2586.3094,821.2012 L2584.9344,824.5762 L2587.6688,824.5762 Z " fill="#000000"/><text fill="#000000" font-family="sans-serif" font-size="14" font-style="italic" lengthAdjust="spacing" textLength="94" x="2605.8" y="830.3105">AbstractLimiter</text><line style="stroke:#181818;stroke-width:0.5;" x1="2547" x2="2727" y1="840.5137" y2="840.5137"/><polygon fill="none" points="2557,850.3242,2561,854.3242,2557,858.3242,2553,854.3242" style="stroke:#B38D22;stroke-width:1.0;"/><text fill="#000000" font-family="sans-serif" font-size="14" lengthAdjust="spacing" textLength="148" x="2566" y="859.6211">CrawlerConfig m_config</text><polygon fill="none" points="2557,868.9453,2561,872.9453,2557,876.9453,2553,872.9453" style="stroke:#B38D22;stroke-width:1.0;"/><text fill="#000000" font-family="sans-serif" font-size="14" lengthAdjust="spacing" textLength="154" x="2566" y="878.2422">boolean noMaxDepthSet</text><polygon fill="none" points="2557,887.5664,2561,891.5664,2557,895.5664,2553,891.5664" style="stroke:#B38D22;stroke-width:1.0;"/><text fill="#000000" font-family="sans-serif" font-size="14" lengthAdjust="spacing" textLength="156" x="2566" y="896.8633">boolean noMaxPagesSet</text><polygon fill="none" points="2557,906.1875,2561,910.1875,2557,914.1875,2553,910.1875" style="stroke:#B38D22;stroke-width:1.0;"/><text fill="#000000" font-family="sans-serif" font-size="14" lengthAdjust="spacing" textLength="72" x="2566" y="915.4844">int m_depth</text><polygon fill="none" points="2557,924.8086,2561,928.8086,2557,932.8086,2553,928.8086" style="stroke:#B38D22;stroke-width:1.0;"/><text fill="#000000" font-family="sans-serif" font-size="14" lengthAdjust="spacing" textLength="118" x="2566" y="934.1055">int m_depthJumper</text><line style="stroke:#181818;stroke-width:0.5;" x1="2547" x2="2727" y1="941.6191" y2="941.6191"/><ellipse cx="2557" cy="956.4297" fill="#84BE84" rx="3" ry="3" style="stroke:#038048;stroke-width:1.0;"/><text fill="#000000" font-family="sans-serif" font-size="14" lengthAdjust="spacing" textLength="82" x="2566" y="960.7266">int getDepth()</text></g><!--class Crawler--><g id="elem_Crawler"><rect codeLine="34" fill="#F1F1F1" height="66.6211" id="Crawler" rx="2.5" ry="2.5" style="stroke:#181818;stroke-width:0.5;" width="93" x="1611.5" y="609.0137"/><ellipse cx="1632.35" cy="625.0137" fill="#B4A7E5" rx="11" ry="11" style="stroke:#181818;stroke-width:1.0;"/><path d="M1633.3031,621.6543 L1633.3031,628.3105 L1635.0219,628.3105 Q1635.6313,628.3105 1635.8969,628.5449 Q1636.1625,628.7793 1636.1625,629.1699 Q1636.1625,629.5449 1635.8969,629.7793 Q1635.6313,630.0137 1635.0219,630.0137 L1629.8813,630.0137 Q1629.2719,630.0137 1629.0063,629.7793 Q1628.7406,629.5449 1628.7406,629.1543 Q1628.7406,628.7793 1629.0063,628.5449 Q1629.2719,628.3105 1629.8813,628.3105 L1631.6,628.3105 L1631.6,621.6543 L1629.8813,621.6543 Q1629.2719,621.6543 1629.0063,621.4199 Q1628.7406,621.1855 1628.7406,620.7949 Q1628.7406,620.4199 1629.0063,620.1855 Q1629.2719,619.9512 1629.8813,619.9512 L1635.0219,619.9512 Q1635.6313,619.9512 1635.8969,620.1855 Q1636.1625,620.4199 1636.1625,620.7949 Q1636.1625,621.1855 1635.8969,621.4199 Q1635.6313,621.6543 1635.0219,621.6543 L1633.3031,621.6543 Z " fill="#000000"/><text fill="#000000" font-family="sans-serif" font-size="14" font-style="italic" lengthAdjust="spacing" textLength="48" x="1647.65" y="630.8105">Crawler</text><line style="stroke:#181818;stroke-width:0.5;" x1="1612.5" x2="1703.5" y1="641.0137" y2="641.0137"/><line style="stroke:#181818;stroke-width:0.5;" x1="1612.5" x2="1703.5" y1="649.0137" y2="649.0137"/><polygon fill="#4177AF" points="1622.5,659.8242,1618.5,665.8242,1626.5,665.8242" style="stroke:#1963A0;stroke-width:1.0;"/><text fill="#000000" font-family="sans-serif" font-size="14" lengthAdjust="spacing" textLength="67" x="1631.5" y="668.1211">void crawl()</text></g><!--class VisitedLinkTracker--><g id="elem_VisitedLinkTracker"><rect codeLine="65" fill="#F1F1F1" height="159.7266" id="VisitedLinkTracker" rx="2.5" ry="2.5" style="stroke:#181818;stroke-width:0.5;" width="184" x="1740" y="562.5137"/><ellipse cx="1769.85" cy="578.5137" fill="#B4A7E5" rx="11" ry="11" style="stroke:#181818;stroke-width:1.0;"/><path d="M1770.8031,575.1543 L1770.8031,581.8105 L1772.5219,581.8105 Q1773.1313,581.8105 1773.3969,582.0449 Q1773.6625,582.2793 1773.6625,582.6699 Q1773.6625,583.0449 1773.3969,583.2793 Q1773.1313,583.5137 1772.5219,583.5137 L1767.3813,583.5137 Q1766.7719,583.5137 1766.5063,583.2793 Q1766.2406,583.0449 1766.2406,582.6543 Q1766.2406,582.2793 1766.5063,582.0449 Q1766.7719,581.8105 1767.3813,581.8105 L1769.1,581.8105 L1769.1,575.1543 L1767.3813,575.1543 Q1766.7719,575.1543 1766.5063,574.9199 Q1766.2406,574.6855 1766.2406,574.2949 Q1766.2406,573.9199 1766.5063,573.6855 Q1766.7719,573.4512 1767.3813,573.4512 L1772.5219,573.4512 Q1773.1313,573.4512 1773.3969,573.6855 Q1773.6625,573.9199 1773.6625,574.2949 Q1773.6625,574.6855 1773.3969,574.9199 Q1773.1313,575.1543 1772.5219,575.1543 L1770.8031,575.1543 Z " fill="#000000"/><text fill="#000000" font-family="sans-serif" font-size="14" font-style="italic" lengthAdjust="spacing" textLength="119" x="1787.15" y="584.3105">VisitedLinkTracker</text><line style="stroke:#181818;stroke-width:0.5;" x1="1741" x2="1923" y1="594.5137" y2="594.5137"/><line style="stroke:#181818;stroke-width:0.5;" x1="1741" x2="1923" y1="602.5137" y2="602.5137"/><polygon fill="#4177AF" points="1751,613.3242,1747,619.3242,1755,619.3242" style="stroke:#1963A0;stroke-width:1.0;"/><text fill="#000000" font-family="sans-serif" font-size="14" lengthAdjust="spacing" textLength="106" x="1760" y="621.6211">boolean add(URI)</text><polygon fill="#4177AF" points="1751,631.9453,1747,637.9453,1755,637.9453" style="stroke:#1963A0;stroke-width:1.0;"/><text fill="#000000" font-family="sans-serif" font-size="14" lengthAdjust="spacing" textLength="158" x="1760" y="640.2422">boolean addAll(Set&lt;URI&gt;)</text><polygon fill="#4177AF" points="1751,650.5664,1747,656.5664,1755,656.5664" style="stroke:#1963A0;stroke-width:1.0;"/><text fill="#000000" font-family="sans-serif" font-size="14" lengthAdjust="spacing" textLength="109" x="1760" y="658.8633">boolean isEmpty()</text><polygon fill="#4177AF" points="1751,669.1875,1747,675.1875,1755,675.1875" style="stroke:#1963A0;stroke-width:1.0;"/><text fill="#000000" font-family="sans-serif" font-size="14" lengthAdjust="spacing" textLength="135" x="1760" y="677.4844">boolean contains(URI)</text><polygon fill="#4177AF" points="1751,687.8086,1747,693.8086,1755,693.8086" style="stroke:#1963A0;stroke-width:1.0;"/><text fill="#000000" font-family="sans-serif" font-size="14" lengthAdjust="spacing" textLength="53" x="1760" y="696.1055">URI poll()</text><polygon fill="#4177AF" points="1751,706.4297,1747,712.4297,1755,712.4297" style="stroke:#1963A0;stroke-width:1.0;"/><text fill="#000000" font-family="sans-serif" font-size="14" lengthAdjust="spacing" textLength="48" x="1760" y="714.7266">int size()</text></g><!--class LinkExtractorJsoup--><g id="elem_LinkExtractorJsoup"><rect codeLine="17" fill="#F1F1F1" height="66.6211" id="LinkExtractorJsoup" rx="2.5" ry="2.5" style="stroke:#181818;stroke-width:0.5;" width="234" x="3877" y="855.0137"/><ellipse cx="3930.25" cy="871.0137" fill="#ADD1B2" rx="11" ry="11" style="stroke:#181818;stroke-width:1.0;"/><path d="M3933.0156,866.8887 Q3933.1719,866.6699 3933.3594,866.5605 Q3933.5469,866.4512 3933.7656,866.4512 Q3934.1406,866.4512 3934.375,866.7168 Q3934.6094,866.9668 3934.6094,867.5762 L3934.6094,869.0293 Q3934.6094,869.6387 3934.375,869.9043 Q3934.1406,870.1699 3933.7656,870.1699 Q3933.4219,870.1699 3933.2188,869.9668 Q3933.0156,869.7793 3932.9063,869.2637 Q3932.8594,868.9043 3932.6719,868.7168 Q3932.3438,868.3418 3931.7344,868.123 Q3931.125,867.9043 3930.5,867.9043 Q3929.7344,867.9043 3929.0938,868.2324 Q3928.4688,868.5605 3927.9688,869.3105 Q3927.4844,870.0605 3927.4844,871.0918 L3927.4844,872.1855 Q3927.4844,873.4199 3928.375,874.248 Q3929.2656,875.0605 3930.8594,875.0605 Q3931.7969,875.0605 3932.4531,874.8105 Q3932.8438,874.6543 3933.2656,874.2168 Q3933.5313,873.9512 3933.6719,873.873 Q3933.8281,873.7949 3934.0313,873.7949 Q3934.3594,873.7949 3934.6094,874.0605 Q3934.875,874.3105 3934.875,874.6543 Q3934.875,874.998 3934.5313,875.4043 Q3934.0313,875.9824 3933.2344,876.3105 Q3932.1563,876.7637 3930.8594,876.7637 Q3929.3438,876.7637 3928.1406,876.1387 Q3927.1563,875.6387 3926.4688,874.5762 Q3925.7813,873.498 3925.7813,872.2168 L3925.7813,871.0605 Q3925.7813,869.7324 3926.3906,868.5918 Q3927.0156,867.4355 3928.1094,866.8262 Q3929.2031,866.2012 3930.4375,866.2012 Q3931.1719,866.2012 3931.8125,866.373 Q3932.4688,866.5293 3933.0156,866.8887 Z " fill="#000000"/><text fill="#000000" font-family="sans-serif" font-size="14" lengthAdjust="spacing" textLength="119" x="3950.75" y="876.8105">LinkExtractorJsoup</text><line style="stroke:#181818;stroke-width:0.5;" x1="3878" x2="4110" y1="887.0137" y2="887.0137"/><line style="stroke:#181818;stroke-width:0.5;" x1="3878" x2="4110" y1="895.0137" y2="895.0137"/><ellipse cx="3888" cy="909.8242" fill="#84BE84" rx="3" ry="3" style="stroke:#038048;stroke-width:1.0;"/><text fill="#000000" font-family="sans-serif" font-size="14" lengthAdjust="spacing" textLength="208" x="3897" y="914.1211">List&lt;URI&gt; extractLinks(Document)</text></g><!--class WebTextProcessor--><g id="elem_WebTextProcessor"><rect codeLine="20" fill="#F1F1F1" height="85.2422" id="WebTextProcessor" rx="2.5" ry="2.5" style="stroke:#181818;stroke-width:0.5;" width="208" x="3319" y="846.0137"/><ellipse cx="3359.2" cy="862.0137" fill="#ADD1B2" rx="11" ry="11" style="stroke:#181818;stroke-width:1.0;"/><path d="M3361.9656,857.8887 Q3362.1219,857.6699 3362.3094,857.5605 Q3362.4969,857.4512 3362.7156,857.4512 Q3363.0906,857.4512 3363.325,857.7168 Q3363.5594,857.9668 3363.5594,858.5762 L3363.5594,860.0293 Q3363.5594,860.6387 3363.325,860.9043 Q3363.0906,861.1699 3362.7156,861.1699 Q3362.3719,861.1699 3362.1688,860.9668 Q3361.9656,860.7793 3361.8563,860.2637 Q3361.8094,859.9043 3361.6219,859.7168 Q3361.2938,859.3418 3360.6844,859.123 Q3360.075,858.9043 3359.45,858.9043 Q3358.6844,858.9043 3358.0438,859.2324 Q3357.4188,859.5605 3356.9188,860.3105 Q3356.4344,861.0605 3356.4344,862.0918 L3356.4344,863.1855 Q3356.4344,864.4199 3357.325,865.248 Q3358.2156,866.0605 3359.8094,866.0605 Q3360.7469,866.0605 3361.4031,865.8105 Q3361.7938,865.6543 3362.2156,865.2168 Q3362.4813,864.9512 3362.6219,864.873 Q3362.7781,864.7949 3362.9813,864.7949 Q3363.3094,864.7949 3363.5594,865.0605 Q3363.825,865.3105 3363.825,865.6543 Q3363.825,865.998 3363.4813,866.4043 Q3362.9813,866.9824 3362.1844,867.3105 Q3361.1063,867.7637 3359.8094,867.7637 Q3358.2938,867.7637 3357.0906,867.1387 Q3356.1063,866.6387 3355.4188,865.5762 Q3354.7313,864.498 3354.7313,863.2168 L3354.7313,862.0605 Q3354.7313,860.7324 3355.3406,859.5918 Q3355.9656,858.4355 3357.0594,857.8262 Q3358.1531,857.2012 3359.3875,857.2012 Q3360.1219,857.2012 3360.7625,857.373 Q3361.4188,857.5293 3361.9656,857.8887 Z " fill="#000000"/><text fill="#000000" font-family="sans-serif" font-size="14" lengthAdjust="spacing" textLength="120" x="3378.8" y="867.8105">WebTextProcessor</text><line style="stroke:#181818;stroke-width:0.5;" x1="3320" x2="3526" y1="878.0137" y2="878.0137"/><line style="stroke:#181818;stroke-width:0.5;" x1="3320" x2="3526" y1="886.0137" y2="886.0137"/><ellipse cx="3330" cy="900.8242" fill="#84BE84" rx="3" ry="3" style="stroke:#038048;stroke-width:1.0;"/><text fill="#000000" font-family="sans-serif" font-size="14" lengthAdjust="spacing" textLength="144" x="3339" y="905.1211">String cleanText(String)</text><ellipse cx="3330" cy="919.4453" fill="#84BE84" rx="3" ry="3" style="stroke:#038048;stroke-width:1.0;"/><text fill="#000000" font-family="sans-serif" font-size="14" lengthAdjust="spacing" textLength="182" x="3339" y="923.7422">List&lt;String&gt; textToList(String)</text></g><!--class TextExtractorJsoup--><g id="elem_TextExtractorJsoup"><rect codeLine="53" fill="#F1F1F1" height="66.6211" id="TextExtractorJsoup" rx="2.5" ry="2.5" style="stroke:#181818;stroke-width:0.5;" width="279" x="3562.5" y="855.0137"/><ellipse cx="3637.75" cy="871.0137" fill="#ADD1B2" rx="11" ry="11" style="stroke:#181818;stroke-width:1.0;"/><path d="M3640.5156,866.8887 Q3640.6719,866.6699 3640.8594,866.5605 Q3641.0469,866.4512 3641.2656,866.4512 Q3641.6406,866.4512 3641.875,866.7168 Q3642.1094,866.9668 3642.1094,867.5762 L3642.1094,869.0293 Q3642.1094,869.6387 3641.875,869.9043 Q3641.6406,870.1699 3641.2656,870.1699 Q3640.9219,870.1699 3640.7188,869.9668 Q3640.5156,869.7793 3640.4063,869.2637 Q3640.3594,868.9043 3640.1719,868.7168 Q3639.8438,868.3418 3639.2344,868.123 Q3638.625,867.9043 3638,867.9043 Q3637.2344,867.9043 3636.5938,868.2324 Q3635.9688,868.5605 3635.4688,869.3105 Q3634.9844,870.0605 3634.9844,871.0918 L3634.9844,872.1855 Q3634.9844,873.4199 3635.875,874.248 Q3636.7656,875.0605 3638.3594,875.0605 Q3639.2969,875.0605 3639.9531,874.8105 Q3640.3438,874.6543 3640.7656,874.2168 Q3641.0313,873.9512 3641.1719,873.873 Q3641.3281,873.7949 3641.5313,873.7949 Q3641.8594,873.7949 3642.1094,874.0605 Q3642.375,874.3105 3642.375,874.6543 Q3642.375,874.998 3642.0313,875.4043 Q3641.5313,875.9824 3640.7344,876.3105 Q3639.6563,876.7637 3638.3594,876.7637 Q3636.8438,876.7637 3635.6406,876.1387 Q3634.6563,875.6387 3633.9688,874.5762 Q3633.2813,873.498 3633.2813,872.2168 L3633.2813,871.0605 Q3633.2813,869.7324 3633.8906,868.5918 Q3634.5156,867.4355 3635.6094,866.8262 Q3636.7031,866.2012 3637.9375,866.2012 Q3638.6719,866.2012 3639.3125,866.373 Q3639.9688,866.5293 3640.5156,866.8887 Z " fill="#000000"/><text fill="#000000" font-family="sans-serif" font-size="14" lengthAdjust="spacing" textLength="120" x="3658.25" y="876.8105">TextExtractorJsoup</text><line style="stroke:#181818;stroke-width:0.5;" x1="3563.5" x2="3840.5" y1="887.0137" y2="887.0137"/><line style="stroke:#181818;stroke-width:0.5;" x1="3563.5" x2="3840.5" y1="895.0137" y2="895.0137"/><ellipse cx="3573.5" cy="909.8242" fill="#84BE84" rx="3" ry="3" style="stroke:#038048;stroke-width:1.0;"/><text fill="#000000" font-family="sans-serif" font-size="14" lengthAdjust="spacing" textLength="253" x="3582.5" y="914.1211">String extractTextToBigString(Document)</text></g><!--class UrlEncoder--><g id="elem_UrlEncoder"><rect codeLine="62" fill="#F1F1F1" height="66.6211" id="UrlEncoder" rx="2.5" ry="2.5" style="stroke:#181818;stroke-width:0.5;" width="173" x="3110.5" y="609.0137"/><ellipse cx="3157.75" cy="625.0137" fill="#ADD1B2" rx="11" ry="11" style="stroke:#181818;stroke-width:1.0;"/><path d="M3160.5156,620.8887 Q3160.6719,620.6699 3160.8594,620.5605 Q3161.0469,620.4512 3161.2656,620.4512 Q3161.6406,620.4512 3161.875,620.7168 Q3162.1094,620.9668 3162.1094,621.5762 L3162.1094,623.0293 Q3162.1094,623.6387 3161.875,623.9043 Q3161.6406,624.1699 3161.2656,624.1699 Q3160.9219,624.1699 3160.7188,623.9668 Q3160.5156,623.7793 3160.4063,623.2637 Q3160.3594,622.9043 3160.1719,622.7168 Q3159.8438,622.3418 3159.2344,622.123 Q3158.625,621.9043 3158,621.9043 Q3157.2344,621.9043 3156.5938,622.2324 Q3155.9688,622.5605 3155.4688,623.3105 Q3154.9844,624.0605 3154.9844,625.0918 L3154.9844,626.1855 Q3154.9844,627.4199 3155.875,628.248 Q3156.7656,629.0605 3158.3594,629.0605 Q3159.2969,629.0605 3159.9531,628.8105 Q3160.3438,628.6543 3160.7656,628.2168 Q3161.0313,627.9512 3161.1719,627.873 Q3161.3281,627.7949 3161.5313,627.7949 Q3161.8594,627.7949 3162.1094,628.0605 Q3162.375,628.3105 3162.375,628.6543 Q3162.375,628.998 3162.0313,629.4043 Q3161.5313,629.9824 3160.7344,630.3105 Q3159.6563,630.7637 3158.3594,630.7637 Q3156.8438,630.7637 3155.6406,630.1387 Q3154.6563,629.6387 3153.9688,628.5762 Q3153.2813,627.498 3153.2813,626.2168 L3153.2813,625.0605 Q3153.2813,623.7324 3153.8906,622.5918 Q3154.5156,621.4355 3155.6094,620.8262 Q3156.7031,620.2012 3157.9375,620.2012 Q3158.6719,620.2012 3159.3125,620.373 Q3159.9688,620.5293 3160.5156,620.8887 Z " fill="#000000"/><text fill="#000000" font-family="sans-serif" font-size="14" lengthAdjust="spacing" textLength="70" x="3178.25" y="630.8105">UrlEncoder</text><line style="stroke:#181818;stroke-width:0.5;" x1="3111.5" x2="3282.5" y1="641.0137" y2="641.0137"/><line style="stroke:#181818;stroke-width:0.5;" x1="3111.5" x2="3282.5" y1="649.0137" y2="649.0137"/><ellipse cx="3121.5" cy="663.8242" fill="#84BE84" rx="3" ry="3" style="stroke:#038048;stroke-width:1.0;"/><text fill="#000000" font-family="sans-serif" font-size="14" lengthAdjust="spacing" text-decoration="underline" textLength="147" x="3130.5" y="668.1211">String encodeUrl(String)</text></g><!--class DocumentProviderJsoup--><g id="elem_DocumentProviderJsoup"><rect codeLine="87" fill="#F1F1F1" height="85.2422" id="DocumentProviderJsoup" rx="2.5" ry="2.5" style="stroke:#181818;stroke-width:0.5;" width="274" x="4146" y="846.0137"/><ellipse cx="4201.75" cy="862.0137" fill="#ADD1B2" rx="11" ry="11" style="stroke:#181818;stroke-width:1.0;"/><path d="M4204.5156,857.8887 Q4204.6719,857.6699 4204.8594,857.5605 Q4205.0469,857.4512 4205.2656,857.4512 Q4205.6406,857.4512 4205.875,857.7168 Q4206.1094,857.9668 4206.1094,858.5762 L4206.1094,860.0293 Q4206.1094,860.6387 4205.875,860.9043 Q4205.6406,861.1699 4205.2656,861.1699 Q4204.9219,861.1699 4204.7188,860.9668 Q4204.5156,860.7793 4204.4063,860.2637 Q4204.3594,859.9043 4204.1719,859.7168 Q4203.8438,859.3418 4203.2344,859.123 Q4202.625,858.9043 4202,858.9043 Q4201.2344,858.9043 4200.5938,859.2324 Q4199.9688,859.5605 4199.4688,860.3105 Q4198.9844,861.0605 4198.9844,862.0918 L4198.9844,863.1855 Q4198.9844,864.4199 4199.875,865.248 Q4200.7656,866.0605 4202.3594,866.0605 Q4203.2969,866.0605 4203.9531,865.8105 Q4204.3438,865.6543 4204.7656,865.2168 Q4205.0313,864.9512 4205.1719,864.873 Q4205.3281,864.7949 4205.5313,864.7949 Q4205.8594,864.7949 4206.1094,865.0605 Q4206.375,865.3105 4206.375,865.6543 Q4206.375,865.998 4206.0313,866.4043 Q4205.5313,866.9824 4204.7344,867.3105 Q4203.6563,867.7637 4202.3594,867.7637 Q4200.8438,867.7637 4199.6406,867.1387 Q4198.6563,866.6387 4197.9688,865.5762 Q4197.2813,864.498 4197.2813,863.2168 L4197.2813,862.0605 Q4197.2813,860.7324 4197.8906,859.5918 Q4198.5156,858.4355 4199.6094,857.8262 Q4200.7031,857.2012 4201.9375,857.2012 Q4202.6719,857.2012 4203.3125,857.373 Q4203.9688,857.5293 4204.5156,857.8887 Z " fill="#000000"/><text fill="#000000" font-family="sans-serif" font-size="14" lengthAdjust="spacing" textLength="154" x="4222.25" y="867.8105">DocumentProviderJsoup</text><line style="stroke:#181818;stroke-width:0.5;" x1="4147" x2="4419" y1="878.0137" y2="878.0137"/><line style="stroke:#181818;stroke-width:0.5;" x1="4147" x2="4419" y1="886.0137" y2="886.0137"/><ellipse cx="4157" cy="900.8242" fill="#84BE84" rx="3" ry="3" style="stroke:#038048;stroke-width:1.0;"/><text fill="#000000" font-family="sans-serif" font-size="14" lengthAdjust="spacing" textLength="248" x="4166" y="905.1211">Optional&lt;Document&gt; getDocument(URI)</text><polygon fill="#4177AF" points="4157,915.4453,4153,921.4453,4161,921.4453" style="stroke:#1963A0;stroke-width:1.0;"/><text fill="#000000" font-family="sans-serif" font-size="14" lengthAdjust="spacing" textLength="207" x="4166" y="923.7422">Document getPageFromLink(URI)</text></g><!--class TextProcessor--><g id="elem_TextProcessor"><rect codeLine="27" fill="#F1F1F1" height="85.2422" id="TextProcessor" rx="2.5" ry="2.5" style="stroke:#181818;stroke-width:0.5;" width="208" x="3319" y="600.0137"/><ellipse cx="3373.25" cy="616.0137" fill="#B4A7E5" rx="11" ry="11" style="stroke:#181818;stroke-width:1.0;"/><path d="M3374.2031,612.6543 L3374.2031,619.3105 L3375.9219,619.3105 Q3376.5313,619.3105 3376.7969,619.5449 Q3377.0625,619.7793 3377.0625,620.1699 Q3377.0625,620.5449 3376.7969,620.7793 Q3376.5313,621.0137 3375.9219,621.0137 L3370.7813,621.0137 Q3370.1719,621.0137 3369.9063,620.7793 Q3369.6406,620.5449 3369.6406,620.1543 Q3369.6406,619.7793 3369.9063,619.5449 Q3370.1719,619.3105 3370.7813,619.3105 L3372.5,619.3105 L3372.5,612.6543 L3370.7813,612.6543 Q3370.1719,612.6543 3369.9063,612.4199 Q3369.6406,612.1855 3369.6406,611.7949 Q3369.6406,611.4199 3369.9063,611.1855 Q3370.1719,610.9512 3370.7813,610.9512 L3375.9219,610.9512 Q3376.5313,610.9512 3376.7969,611.1855 Q3377.0625,611.4199 3377.0625,611.7949 Q3377.0625,612.1855 3376.7969,612.4199 Q3376.5313,612.6543 3375.9219,612.6543 L3374.2031,612.6543 Z " fill="#000000"/><text fill="#000000" font-family="sans-serif" font-size="14" font-style="italic" lengthAdjust="spacing" textLength="91" x="3393.75" y="621.8105">TextProcessor</text><line style="stroke:#181818;stroke-width:0.5;" x1="3320" x2="3526" y1="632.0137" y2="632.0137"/><line style="stroke:#181818;stroke-width:0.5;" x1="3320" x2="3526" y1="640.0137" y2="640.0137"/><polygon fill="#4177AF" points="3330,650.8242,3326,656.8242,3334,656.8242" style="stroke:#1963A0;stroke-width:1.0;"/><text fill="#000000" font-family="sans-serif" font-size="14" lengthAdjust="spacing" textLength="144" x="3339" y="659.1211">String cleanText(String)</text><polygon fill="#4177AF" points="3330,669.4453,3326,675.4453,3334,675.4453" style="stroke:#1963A0;stroke-width:1.0;"/><text fill="#000000" font-family="sans-serif" font-size="14" lengthAdjust="spacing" textLength="182" x="3339" y="677.7422">List&lt;String&gt; textToList(String)</text></g><!--class TextExtractor--><g id="elem_TextExtractor"><rect codeLine="84" fill="#F1F1F1" height="66.6211" id="TextExtractor" rx="2.5" ry="2.5" style="stroke:#181818;stroke-width:0.5;" width="279" x="3562.5" y="609.0137"/><ellipse cx="3656.25" cy="625.0137" fill="#B4A7E5" rx="11" ry="11" style="stroke:#181818;stroke-width:1.0;"/><path d="M3657.2031,621.6543 L3657.2031,628.3105 L3658.9219,628.3105 Q3659.5313,628.3105 3659.7969,628.5449 Q3660.0625,628.7793 3660.0625,629.1699 Q3660.0625,629.5449 3659.7969,629.7793 Q3659.5313,630.0137 3658.9219,630.0137 L3653.7813,630.0137 Q3653.1719,630.0137 3652.9063,629.7793 Q3652.6406,629.5449 3652.6406,629.1543 Q3652.6406,628.7793 3652.9063,628.5449 Q3653.1719,628.3105 3653.7813,628.3105 L3655.5,628.3105 L3655.5,621.6543 L3653.7813,621.6543 Q3653.1719,621.6543 3652.9063,621.4199 Q3652.6406,621.1855 3652.6406,620.7949 Q3652.6406,620.4199 3652.9063,620.1855 Q3653.1719,619.9512 3653.7813,619.9512 L3658.9219,619.9512 Q3659.5313,619.9512 3659.7969,620.1855 Q3660.0625,620.4199 3660.0625,620.7949 Q3660.0625,621.1855 3659.7969,621.4199 Q3659.5313,621.6543 3658.9219,621.6543 L3657.2031,621.6543 Z " fill="#000000"/><text fill="#000000" font-family="sans-serif" font-size="14" font-style="italic" lengthAdjust="spacing" textLength="83" x="3676.75" y="630.8105">TextExtractor</text><line style="stroke:#181818;stroke-width:0.5;" x1="3563.5" x2="3840.5" y1="641.0137" y2="641.0137"/><line style="stroke:#181818;stroke-width:0.5;" x1="3563.5" x2="3840.5" y1="649.0137" y2="649.0137"/><polygon fill="#4177AF" points="3573.5,659.8242,3569.5,665.8242,3577.5,665.8242" style="stroke:#1963A0;stroke-width:1.0;"/><text fill="#000000" font-family="sans-serif" font-size="14" lengthAdjust="spacing" textLength="253" x="3582.5" y="668.1211">String extractTextToBigString(Document)</text></g><!--class LinkExtractor--><g id="elem_LinkExtractor"><rect codeLine="98" fill="#F1F1F1" height="66.6211" id="LinkExtractor" rx="2.5" ry="2.5" style="stroke:#181818;stroke-width:0.5;" width="234" x="3877" y="609.0137"/><ellipse cx="3948.25" cy="625.0137" fill="#B4A7E5" rx="11" ry="11" style="stroke:#181818;stroke-width:1.0;"/><path d="M3949.2031,621.6543 L3949.2031,628.3105 L3950.9219,628.3105 Q3951.5313,628.3105 3951.7969,628.5449 Q3952.0625,628.7793 3952.0625,629.1699 Q3952.0625,629.5449 3951.7969,629.7793 Q3951.5313,630.0137 3950.9219,630.0137 L3945.7813,630.0137 Q3945.1719,630.0137 3944.9063,629.7793 Q3944.6406,629.5449 3944.6406,629.1543 Q3944.6406,628.7793 3944.9063,628.5449 Q3945.1719,628.3105 3945.7813,628.3105 L3947.5,628.3105 L3947.5,621.6543 L3945.7813,621.6543 Q3945.1719,621.6543 3944.9063,621.4199 Q3944.6406,621.1855 3944.6406,620.7949 Q3944.6406,620.4199 3944.9063,620.1855 Q3945.1719,619.9512 3945.7813,619.9512 L3950.9219,619.9512 Q3951.5313,619.9512 3951.7969,620.1855 Q3952.0625,620.4199 3952.0625,620.7949 Q3952.0625,621.1855 3951.7969,621.4199 Q3951.5313,621.6543 3950.9219,621.6543 L3949.2031,621.6543 Z " fill="#000000"/><text fill="#000000" font-family="sans-serif" font-size="14" font-style="italic" lengthAdjust="spacing" textLength="83" x="3968.75" y="630.8105">LinkExtractor</text><line style="stroke:#181818;stroke-width:0.5;" x1="3878" x2="4110" y1="641.0137" y2="641.0137"/><line style="stroke:#181818;stroke-width:0.5;" x1="3878" x2="4110" y1="649.0137" y2="649.0137"/><polygon fill="#4177AF" points="3888,659.8242,3884,665.8242,3892,665.8242" style="stroke:#1963A0;stroke-width:1.0;"/><text fill="#000000" font-family="sans-serif" font-size="14" lengthAdjust="spacing" textLength="208" x="3897" y="668.1211">List&lt;URI&gt; extractLinks(Document)</text></g><!--class DocumentProvider--><g id="elem_DocumentProvider"><rect codeLine="101" fill="#F1F1F1" height="66.6211" id="DocumentProvider" rx="2.5" ry="2.5" style="stroke:#181818;stroke-width:0.5;" width="274" x="4146" y="609.0137"/><ellipse cx="4220.75" cy="625.0137" fill="#B4A7E5" rx="11" ry="11" style="stroke:#181818;stroke-width:1.0;"/><path d="M4221.7031,621.6543 L4221.7031,628.3105 L4223.4219,628.3105 Q4224.0313,628.3105 4224.2969,628.5449 Q4224.5625,628.7793 4224.5625,629.1699 Q4224.5625,629.5449 4224.2969,629.7793 Q4224.0313,630.0137 4223.4219,630.0137 L4218.2813,630.0137 Q4217.6719,630.0137 4217.4063,629.7793 Q4217.1406,629.5449 4217.1406,629.1543 Q4217.1406,628.7793 4217.4063,628.5449 Q4217.6719,628.3105 4218.2813,628.3105 L4220,628.3105 L4220,621.6543 L4218.2813,621.6543 Q4217.6719,621.6543 4217.4063,621.4199 Q4217.1406,621.1855 4217.1406,620.7949 Q4217.1406,620.4199 4217.4063,620.1855 Q4217.6719,619.9512 4218.2813,619.9512 L4223.4219,619.9512 Q4224.0313,619.9512 4224.2969,620.1855 Q4224.5625,620.4199 4224.5625,620.7949 Q4224.5625,621.1855 4224.2969,621.4199 Q4224.0313,621.6543 4223.4219,621.6543 L4221.7031,621.6543 Z " fill="#000000"/><text fill="#000000" font-family="sans-serif" font-size="14" font-style="italic" lengthAdjust="spacing" textLength="116" x="4241.25" y="630.8105">DocumentProvider</text><line style="stroke:#181818;stroke-width:0.5;" x1="4147" x2="4419" y1="641.0137" y2="641.0137"/><line style="stroke:#181818;stroke-width:0.5;" x1="4147" x2="4419" y1="649.0137" y2="649.0137"/><polygon fill="#4177AF" points="4157,659.8242,4153,665.8242,4161,665.8242" style="stroke:#1963A0;stroke-width:1.0;"/><text fill="#000000" font-family="sans-serif" font-size="14" lengthAdjust="spacing" textLength="248" x="4166" y="668.1211">Optional&lt;Document&gt; getDocument(URI)</text></g><!--class SpringAsyncConfig--><g id="elem_SpringAsyncConfig"><rect codeLine="24" fill="#F1F1F1" height="66.6211" id="SpringAsyncConfig" rx="2.5" ry="2.5" style="stroke:#181818;stroke-width:0.5;" width="203" x="687.5" y="609.0137"/><ellipse cx="725.45" cy="625.0137" fill="#ADD1B2" rx="11" ry="11" style="stroke:#181818;stroke-width:1.0;"/><path d="M728.2156,620.8887 Q728.3719,620.6699 728.5594,620.5605 Q728.7469,620.4512 728.9656,620.4512 Q729.3406,620.4512 729.575,620.7168 Q729.8094,620.9668 729.8094,621.5762 L729.8094,623.0293 Q729.8094,623.6387 729.575,623.9043 Q729.3406,624.1699 728.9656,624.1699 Q728.6219,624.1699 728.4188,623.9668 Q728.2156,623.7793 728.1063,623.2637 Q728.0594,622.9043 727.8719,622.7168 Q727.5438,622.3418 726.9344,622.123 Q726.325,621.9043 725.7,621.9043 Q724.9344,621.9043 724.2938,622.2324 Q723.6688,622.5605 723.1688,623.3105 Q722.6844,624.0605 722.6844,625.0918 L722.6844,626.1855 Q722.6844,627.4199 723.575,628.248 Q724.4656,629.0605 726.0594,629.0605 Q726.9969,629.0605 727.6531,628.8105 Q728.0438,628.6543 728.4656,628.2168 Q728.7313,627.9512 728.8719,627.873 Q729.0281,627.7949 729.2313,627.7949 Q729.5594,627.7949 729.8094,628.0605 Q730.075,628.3105 730.075,628.6543 Q730.075,628.998 729.7313,629.4043 Q729.2313,629.9824 728.4344,630.3105 Q727.3563,630.7637 726.0594,630.7637 Q724.5438,630.7637 723.3406,630.1387 Q722.3563,629.6387 721.6688,628.5762 Q720.9813,627.498 720.9813,626.2168 L720.9813,625.0605 Q720.9813,623.7324 721.5906,622.5918 Q722.2156,621.4355 723.3094,620.8262 Q724.4031,620.2012 725.6375,620.2012 Q726.3719,620.2012 727.0125,620.373 Q727.6688,620.5293 728.2156,620.8887 Z " fill="#000000"/><text fill="#000000" font-family="sans-serif" font-size="14" lengthAdjust="spacing" textLength="120" x="744.55" y="630.8105">SpringAsyncConfig</text><line style="stroke:#181818;stroke-width:0.5;" x1="688.5" x2="889.5" y1="641.0137" y2="641.0137"/><line style="stroke:#181818;stroke-width:0.5;" x1="688.5" x2="889.5" y1="649.0137" y2="649.0137"/><ellipse cx="698.5" cy="663.8242" fill="#84BE84" rx="3" ry="3" style="stroke:#038048;stroke-width:1.0;"/><text fill="#000000" font-family="sans-serif" font-size="14" lengthAdjust="spacing" textLength="177" x="707.5" y="668.1211">Executor getAsyncExecutor()</text></g><!--class CrawlerConfig--><g id="elem_CrawlerConfig"><rect codeLine="45" fill="#F1F1F1" height="48" id="CrawlerConfig" rx="2.5" ry="2.5" style="stroke:#181818;stroke-width:0.5;" width="121" x="531.5" y="618.5137"/><ellipse cx="546.5" cy="634.5137" fill="#ADD1B2" rx="11" ry="11" style="stroke:#181818;stroke-width:1.0;"/><path d="M549.2656,630.3887 Q549.4219,630.1699 549.6094,630.0605 Q549.7969,629.9512 550.0156,629.9512 Q550.3906,629.9512 550.625,630.2168 Q550.8594,630.4668 550.8594,631.0762 L550.8594,632.5293 Q550.8594,633.1387 550.625,633.4043 Q550.3906,633.6699 550.0156,633.6699 Q549.6719,633.6699 549.4688,633.4668 Q549.2656,633.2793 549.1563,632.7637 Q549.1094,632.4043 548.9219,632.2168 Q548.5938,631.8418 547.9844,631.623 Q547.375,631.4043 546.75,631.4043 Q545.9844,631.4043 545.3438,631.7324 Q544.7188,632.0605 544.2188,632.8105 Q543.7344,633.5605 543.7344,634.5918 L543.7344,635.6855 Q543.7344,636.9199 544.625,637.748 Q545.5156,638.5605 547.1094,638.5605 Q548.0469,638.5605 548.7031,638.3105 Q549.0938,638.1543 549.5156,637.7168 Q549.7813,637.4512 549.9219,637.373 Q550.0781,637.2949 550.2813,637.2949 Q550.6094,637.2949 550.8594,637.5605 Q551.125,637.8105 551.125,638.1543 Q551.125,638.498 550.7813,638.9043 Q550.2813,639.4824 549.4844,639.8105 Q548.4063,640.2637 547.1094,640.2637 Q545.5938,640.2637 544.3906,639.6387 Q543.4063,639.1387 542.7188,638.0762 Q542.0313,636.998 542.0313,635.7168 L542.0313,634.5605 Q542.0313,633.2324 542.6406,632.0918 Q543.2656,630.9355 544.3594,630.3262 Q545.4531,629.7012 546.6875,629.7012 Q547.4219,629.7012 548.0625,629.873 Q548.7188,630.0293 549.2656,630.3887 Z " fill="#000000"/><text fill="#000000" font-family="sans-serif" font-size="14" lengthAdjust="spacing" textLength="89" x="560.5" y="640.3105">CrawlerConfig</text><line style="stroke:#181818;stroke-width:0.5;" x1="532.5" x2="651.5" y1="650.5137" y2="650.5137"/><line style="stroke:#181818;stroke-width:0.5;" x1="532.5" x2="651.5" y1="658.5137" y2="658.5137"/></g><!--class DataReadyEvent--><g id="elem_DataReadyEvent"><rect codeLine="40" fill="#F1F1F1" height="103.8633" id="DataReadyEvent" rx="2.5" ry="2.5" style="stroke:#181818;stroke-width:0.5;" width="155" x="1223.5" y="590.5137"/><ellipse cx="1245.7" cy="606.5137" fill="#ADD1B2" rx="11" ry="11" style="stroke:#181818;stroke-width:1.0;"/><path d="M1248.4656,602.3887 Q1248.6219,602.1699 1248.8094,602.0605 Q1248.9969,601.9512 1249.2156,601.9512 Q1249.5906,601.9512 1249.825,602.2168 Q1250.0594,602.4668 1250.0594,603.0762 L1250.0594,604.5293 Q1250.0594,605.1387 1249.825,605.4043 Q1249.5906,605.6699 1249.2156,605.6699 Q1248.8719,605.6699 1248.6688,605.4668 Q1248.4656,605.2793 1248.3563,604.7637 Q1248.3094,604.4043 1248.1219,604.2168 Q1247.7938,603.8418 1247.1844,603.623 Q1246.575,603.4043 1245.95,603.4043 Q1245.1844,603.4043 1244.5438,603.7324 Q1243.9188,604.0605 1243.4188,604.8105 Q1242.9344,605.5605 1242.9344,606.5918 L1242.9344,607.6855 Q1242.9344,608.9199 1243.825,609.748 Q1244.7156,610.5605 1246.3094,610.5605 Q1247.2469,610.5605 1247.9031,610.3105 Q1248.2938,610.1543 1248.7156,609.7168 Q1248.9813,609.4512 1249.1219,609.373 Q1249.2781,609.2949 1249.4813,609.2949 Q1249.8094,609.2949 1250.0594,609.5605 Q1250.325,609.8105 1250.325,610.1543 Q1250.325,610.498 1249.9813,610.9043 Q1249.4813,611.4824 1248.6844,611.8105 Q1247.6063,612.2637 1246.3094,612.2637 Q1244.7938,612.2637 1243.5906,611.6387 Q1242.6063,611.1387 1241.9188,610.0762 Q1241.2313,608.998 1241.2313,607.7168 L1241.2313,606.5605 Q1241.2313,605.2324 1241.8406,604.0918 Q1242.4656,602.9355 1243.5594,602.3262 Q1244.6531,601.7012 1245.8875,601.7012 Q1246.6219,601.7012 1247.2625,601.873 Q1247.9188,602.0293 1248.4656,602.3887 Z " fill="#000000"/><text fill="#000000" font-family="sans-serif" font-size="14" lengthAdjust="spacing" textLength="107" x="1261.3" y="612.3105">DataReadyEvent</text><line style="stroke:#181818;stroke-width:0.5;" x1="1224.5" x2="1377.5" y1="622.5137" y2="622.5137"/><polygon fill="none" points="1234.5,633.3242,1230.5,639.3242,1238.5,639.3242" style="stroke:#1963A0;stroke-width:1.0;"/><text fill="#000000" font-family="sans-serif" font-size="14" lengthAdjust="spacing" textLength="129" x="1243.5" y="641.6211">int numUniquePages</text><polygon fill="none" points="1234.5,651.9453,1230.5,657.9453,1238.5,657.9453" style="stroke:#1963A0;stroke-width:1.0;"/><text fill="#000000" font-family="sans-serif" font-size="14" lengthAdjust="spacing" textLength="78" x="1243.5" y="660.2422">int numLinks</text><polygon fill="none" points="1234.5,670.5664,1230.5,676.5664,1238.5,676.5664" style="stroke:#1963A0;stroke-width:1.0;"/><text fill="#000000" font-family="sans-serif" font-size="14" lengthAdjust="spacing" textLength="126" x="1243.5" y="678.8633">int numIgnoredLinks</text><line style="stroke:#181818;stroke-width:0.5;" x1="1224.5" x2="1377.5" y1="686.377" y2="686.377"/></g><!--class DataReadyEventPublisher--><g id="elem_DataReadyEventPublisher"><rect codeLine="91" fill="#F1F1F1" height="66.6211" id="DataReadyEventPublisher" rx="2.5" ry="2.5" style="stroke:#181818;stroke-width:0.5;" width="241" x="947.5" y="609.0137"/><ellipse cx="981.85" cy="625.0137" fill="#ADD1B2" rx="11" ry="11" style="stroke:#181818;stroke-width:1.0;"/><path d="M984.6156,620.8887 Q984.7719,620.6699 984.9594,620.5605 Q985.1469,620.4512 985.3656,620.4512 Q985.7406,620.4512 985.975,620.7168 Q986.2094,620.9668 986.2094,621.5762 L986.2094,623.0293 Q986.2094,623.6387 985.975,623.9043 Q985.7406,624.1699 985.3656,624.1699 Q985.0219,624.1699 984.8188,623.9668 Q984.6156,623.7793 984.5063,623.2637 Q984.4594,622.9043 984.2719,622.7168 Q983.9438,622.3418 983.3344,622.123 Q982.725,621.9043 982.1,621.9043 Q981.3344,621.9043 980.6938,622.2324 Q980.0688,622.5605 979.5688,623.3105 Q979.0844,624.0605 979.0844,625.0918 L979.0844,626.1855 Q979.0844,627.4199 979.975,628.248 Q980.8656,629.0605 982.4594,629.0605 Q983.3969,629.0605 984.0531,628.8105 Q984.4438,628.6543 984.8656,628.2168 Q985.1313,627.9512 985.2719,627.873 Q985.4281,627.7949 985.6313,627.7949 Q985.9594,627.7949 986.2094,628.0605 Q986.475,628.3105 986.475,628.6543 Q986.475,628.998 986.1313,629.4043 Q985.6313,629.9824 984.8344,630.3105 Q983.7563,630.7637 982.4594,630.7637 Q980.9438,630.7637 979.7406,630.1387 Q978.7563,629.6387 978.0688,628.5762 Q977.3813,627.498 977.3813,626.2168 L977.3813,625.0605 Q977.3813,623.7324 977.9906,622.5918 Q978.6156,621.4355 979.7094,620.8262 Q980.8031,620.2012 982.0375,620.2012 Q982.7719,620.2012 983.4125,620.373 Q984.0688,620.5293 984.6156,620.8887 Z " fill="#000000"/><text fill="#000000" font-family="sans-serif" font-size="14" lengthAdjust="spacing" textLength="166" x="1000.15" y="630.8105">DataReadyEventPublisher</text><line style="stroke:#181818;stroke-width:0.5;" x1="948.5" x2="1187.5" y1="641.0137" y2="641.0137"/><line style="stroke:#181818;stroke-width:0.5;" x1="948.5" x2="1187.5" y1="649.0137" y2="649.0137"/><ellipse cx="958.5" cy="663.8242" fill="#84BE84" rx="3" ry="3" style="stroke:#038048;stroke-width:1.0;"/><text fill="#000000" font-family="sans-serif" font-size="14" lengthAdjust="spacing" textLength="215" x="967.5" y="668.1211">void publishCustomEvent(int,int,int)</text></g><!--class TextExtractorJsoupTest--><g id="elem_TextExtractorJsoupTest"><rect codeLine="47" fill="#F1F1F1" height="122.4844" id="TextExtractorJsoupTest" rx="2.5" ry="2.5" style="stroke:#181818;stroke-width:0.5;" width="228" x="4524" y="581.5137"/><ellipse cx="4560.6" cy="597.5137" fill="#ADD1B2" rx="11" ry="11" style="stroke:#181818;stroke-width:1.0;"/><path d="M4563.3656,593.3887 Q4563.5219,593.1699 4563.7094,593.0605 Q4563.8969,592.9512 4564.1156,592.9512 Q4564.4906,592.9512 4564.725,593.2168 Q4564.9594,593.4668 4564.9594,594.0762 L4564.9594,595.5293 Q4564.9594,596.1387 4564.725,596.4043 Q4564.4906,596.6699 4564.1156,596.6699 Q4563.7719,596.6699 4563.5688,596.4668 Q4563.3656,596.2793 4563.2563,595.7637 Q4563.2094,595.4043 4563.0219,595.2168 Q4562.6938,594.8418 4562.0844,594.623 Q4561.475,594.4043 4560.85,594.4043 Q4560.0844,594.4043 4559.4438,594.7324 Q4558.8188,595.0605 4558.3188,595.8105 Q4557.8344,596.5605 4557.8344,597.5918 L4557.8344,598.6855 Q4557.8344,599.9199 4558.725,600.748 Q4559.6156,601.5605 4561.2094,601.5605 Q4562.1469,601.5605 4562.8031,601.3105 Q4563.1938,601.1543 4563.6156,600.7168 Q4563.8813,600.4512 4564.0219,600.373 Q4564.1781,600.2949 4564.3813,600.2949 Q4564.7094,600.2949 4564.9594,600.5605 Q4565.225,600.8105 4565.225,601.1543 Q4565.225,601.498 4564.8813,601.9043 Q4564.3813,602.4824 4563.5844,602.8105 Q4562.5063,603.2637 4561.2094,603.2637 Q4559.6938,603.2637 4558.4906,602.6387 Q4557.5063,602.1387 4556.8188,601.0762 Q4556.1313,599.998 4556.1313,598.7168 L4556.1313,597.5605 Q4556.1313,596.2324 4556.7406,595.0918 Q4557.3656,593.9355 4558.4594,593.3262 Q4559.5531,592.7012 4560.7875,592.7012 Q4561.5219,592.7012 4562.1625,592.873 Q4562.8188,593.0293 4563.3656,593.3887 Z " fill="#000000"/><text fill="#000000" font-family="sans-serif" font-size="14" lengthAdjust="spacing" textLength="148" x="4579.4" y="603.3105">TextExtractorJsoupTest</text><line style="stroke:#181818;stroke-width:0.5;" x1="4525" x2="4751" y1="613.5137" y2="613.5137"/><line style="stroke:#181818;stroke-width:0.5;" x1="4525" x2="4751" y1="621.5137" y2="621.5137"/><polygon fill="#4177AF" points="4535,632.3242,4531,638.3242,4539,638.3242" style="stroke:#1963A0;stroke-width:1.0;"/><text fill="#000000" font-family="sans-serif" font-size="14" lengthAdjust="spacing" textLength="71" x="4544" y="640.6211">void setUp()</text><ellipse cx="4535" cy="654.9453" fill="#84BE84" rx="3" ry="3" style="stroke:#038048;stroke-width:1.0;"/><text fill="#000000" font-family="sans-serif" font-size="14" lengthAdjust="spacing" textLength="202" x="4544" y="659.2422">void testExtractTextToBigString()</text><ellipse cx="4535" cy="673.5664" fill="#84BE84" rx="3" ry="3" style="stroke:#038048;stroke-width:1.0;"/><text fill="#000000" font-family="sans-serif" font-size="14" lengthAdjust="spacing" textLength="176" x="4544" y="677.8633">void testCleanTextToString()</text><ellipse cx="4535" cy="692.1875" fill="#84BE84" rx="3" ry="3" style="stroke:#038048;stroke-width:1.0;"/><text fill="#000000" font-family="sans-serif" font-size="14" lengthAdjust="spacing" textLength="154" x="4544" y="696.4844">void testBigStringToList()</text></g><!--class StatisticsService--><g id="elem_StatisticsService"><rect fill="#F1F1F1" height="48" id="StatisticsService" rx="2.5" ry="2.5" style="stroke:#181818;stroke-width:0.5;" width="135" x="94.5" y="618.5137"/><ellipse cx="109.5" cy="634.5137" fill="#ADD1B2" rx="11" ry="11" style="stroke:#181818;stroke-width:1.0;"/><path d="M112.2656,630.3887 Q112.4219,630.1699 112.6094,630.0605 Q112.7969,629.9512 113.0156,629.9512 Q113.3906,629.9512 113.625,630.2168 Q113.8594,630.4668 113.8594,631.0762 L113.8594,632.5293 Q113.8594,633.1387 113.625,633.4043 Q113.3906,633.6699 113.0156,633.6699 Q112.6719,633.6699 112.4688,633.4668 Q112.2656,633.2793 112.1563,632.7637 Q112.1094,632.4043 111.9219,632.2168 Q111.5938,631.8418 110.9844,631.623 Q110.375,631.4043 109.75,631.4043 Q108.9844,631.4043 108.3438,631.7324 Q107.7188,632.0605 107.2188,632.8105 Q106.7344,633.5605 106.7344,634.5918 L106.7344,635.6855 Q106.7344,636.9199 107.625,637.748 Q108.5156,638.5605 110.1094,638.5605 Q111.0469,638.5605 111.7031,638.3105 Q112.0938,638.1543 112.5156,637.7168 Q112.7813,637.4512 112.9219,637.373 Q113.0781,637.2949 113.2813,637.2949 Q113.6094,637.2949 113.8594,637.5605 Q114.125,637.8105 114.125,638.1543 Q114.125,638.498 113.7813,638.9043 Q113.2813,639.4824 112.4844,639.8105 Q111.4063,640.2637 110.1094,640.2637 Q108.5938,640.2637 107.3906,639.6387 Q106.4063,639.1387 105.7188,638.0762 Q105.0313,636.998 105.0313,635.7168 L105.0313,634.5605 Q105.0313,633.2324 105.6406,632.0918 Q106.2656,630.9355 107.3594,630.3262 Q108.4531,629.7012 109.6875,629.7012 Q110.4219,629.7012 111.0625,629.873 Q111.7188,630.0293 112.2656,630.3887 Z " fill="#000000"/><text fill="#000000" font-family="sans-serif" font-size="14" lengthAdjust="spacing" textLength="103" x="123.5" y="640.3105">StatisticsService</text><line style="stroke:#181818;stroke-width:0.5;" x1="95.5" x2="228.5" y1="650.5137" y2="650.5137"/><line style="stroke:#181818;stroke-width:0.5;" x1="95.5" x2="228.5" y1="658.5137" y2="658.5137"/></g><!--class AsyncConfigurer--><g id="elem_AsyncConfigurer"><rect fill="#F1F1F1" height="48" id="AsyncConfigurer" rx="2.5" ry="2.5" style="stroke:#181818;stroke-width:0.5;" width="137" x="867.5" y="178.0137"/><ellipse cx="882.5" cy="194.0137" fill="#ADD1B2" rx="11" ry="11" style="stroke:#181818;stroke-width:1.0;"/><path d="M885.2656,189.8887 Q885.4219,189.6699 885.6094,189.5605 Q885.7969,189.4512 886.0156,189.4512 Q886.3906,189.4512 886.625,189.7168 Q886.8594,189.9668 886.8594,190.5762 L886.8594,192.0293 Q886.8594,192.6387 886.625,192.9043 Q886.3906,193.1699 886.0156,193.1699 Q885.6719,193.1699 885.4688,192.9668 Q885.2656,192.7793 885.1563,192.2637 Q885.1094,191.9043 884.9219,191.7168 Q884.5938,191.3418 883.9844,191.123 Q883.375,190.9043 882.75,190.9043 Q881.9844,190.9043 881.3438,191.2324 Q880.7188,191.5605 880.2188,192.3105 Q879.7344,193.0605 879.7344,194.0918 L879.7344,195.1855 Q879.7344,196.4199 880.625,197.248 Q881.5156,198.0605 883.1094,198.0605 Q884.0469,198.0605 884.7031,197.8105 Q885.0938,197.6543 885.5156,197.2168 Q885.7813,196.9512 885.9219,196.873 Q886.0781,196.7949 886.2813,196.7949 Q886.6094,196.7949 886.8594,197.0605 Q887.125,197.3105 887.125,197.6543 Q887.125,197.998 886.7813,198.4043 Q886.2813,198.9824 885.4844,199.3105 Q884.4063,199.7637 883.1094,199.7637 Q881.5938,199.7637 880.3906,199.1387 Q879.4063,198.6387 878.7188,197.5762 Q878.0313,196.498 878.0313,195.2168 L878.0313,194.0605 Q878.0313,192.7324 878.6406,191.5918 Q879.2656,190.4355 880.3594,189.8262 Q881.4531,189.2012 882.6875,189.2012 Q883.4219,189.2012 884.0625,189.373 Q884.7188,189.5293 885.2656,189.8887 Z " fill="#000000"/><text fill="#000000" font-family="sans-serif" font-size="14" lengthAdjust="spacing" textLength="105" x="896.5" y="199.8105">AsyncConfigurer</text><line style="stroke:#181818;stroke-width:0.5;" x1="868.5" x2="1003.5" y1="210.0137" y2="210.0137"/><line style="stroke:#181818;stroke-width:0.5;" x1="868.5" x2="1003.5" y1="218.0137" y2="218.0137"/></g><!--class ApplicationEvent--><g id="elem_ApplicationEvent"><rect fill="#F1F1F1" height="48" id="ApplicationEvent" rx="2.5" ry="2.5" style="stroke:#181818;stroke-width:0.5;" width="137" x="1085.5" y="178.0137"/><ellipse cx="1100.5" cy="194.0137" fill="#ADD1B2" rx="11" ry="11" style="stroke:#181818;stroke-width:1.0;"/><path d="M1103.2656,189.8887 Q1103.4219,189.6699 1103.6094,189.5605 Q1103.7969,189.4512 1104.0156,189.4512 Q1104.3906,189.4512 1104.625,189.7168 Q1104.8594,189.9668 1104.8594,190.5762 L1104.8594,192.0293 Q1104.8594,192.6387 1104.625,192.9043 Q1104.3906,193.1699 1104.0156,193.1699 Q1103.6719,193.1699 1103.4688,192.9668 Q1103.2656,192.7793 1103.1563,192.2637 Q1103.1094,191.9043 1102.9219,191.7168 Q1102.5938,191.3418 1101.9844,191.123 Q1101.375,190.9043 1100.75,190.9043 Q1099.9844,190.9043 1099.3438,191.2324 Q1098.7188,191.5605 1098.2188,192.3105 Q1097.7344,193.0605 1097.7344,194.0918 L1097.7344,195.1855 Q1097.7344,196.4199 1098.625,197.248 Q1099.5156,198.0605 1101.1094,198.0605 Q1102.0469,198.0605 1102.7031,197.8105 Q1103.0938,197.6543 1103.5156,197.2168 Q1103.7813,196.9512 1103.9219,196.873 Q1104.0781,196.7949 1104.2813,196.7949 Q1104.6094,196.7949 1104.8594,197.0605 Q1105.125,197.3105 1105.125,197.6543 Q1105.125,197.998 1104.7813,198.4043 Q1104.2813,198.9824 1103.4844,199.3105 Q1102.4063,199.7637 1101.1094,199.7637 Q1099.5938,199.7637 1098.3906,199.1387 Q1097.4063,198.6387 1096.7188,197.5762 Q1096.0313,196.498 1096.0313,195.2168 L1096.0313,194.0605 Q1096.0313,192.7324 1096.6406,191.5918 Q1097.2656,190.4355 1098.3594,189.8262 Q1099.4531,189.2012 1100.6875,189.2012 Q1101.4219,189.2012 1102.0625,189.373 Q1102.7188,189.5293 1103.2656,189.8887 Z " fill="#000000"/><text fill="#000000" font-family="sans-serif" font-size="14" lengthAdjust="spacing" textLength="105" x="1114.5" y="199.8105">ApplicationEvent</text><line style="stroke:#181818;stroke-width:0.5;" x1="1086.5" x2="1221.5" y1="210.0137" y2="210.0137"/><line style="stroke:#181818;stroke-width:0.5;" x1="1086.5" x2="1221.5" y1="218.0137" y2="218.0137"/></g><!--reverse link VisitedLinkTracker to AbstractVisitedTrackerDeque--><g id="link_VisitedLinkTracker_AbstractVisitedTrackerDeque"><path codeLine="106" d="M1858.27,742.1237 C1863.32,761.0737 1868.57,780.8037 1873.53,799.4037 " fill="none" id="VisitedLinkTracker-backto-AbstractVisitedTrackerDeque" style="stroke:#181818;stroke-width:1.0;stroke-dasharray:7.0,7.0;"/><polygon fill="none" points="1851.49,743.8637,1853.1,722.7337,1865.02,740.2537,1851.49,743.8637" style="stroke:#181818;stroke-width:1.0;"/></g><!--reverse link AbstractVisitedTrackerDeque to AddAllDfs--><g id="link_AbstractVisitedTrackerDeque_AddAllDfs"><path codeLine="107" d="M1884.98,998.0037 C1883.4,1012.2237 1881.9,1025.8037 1880.63,1037.2637 " fill="none" id="AbstractVisitedTrackerDeque-backto-AddAllDfs" style="stroke:#181818;stroke-width:1.0;"/><polygon fill="none" points="1878.07,996.7537,1887.23,977.6437,1891.99,998.2937,1878.07,996.7537" style="stroke:#181818;stroke-width:1.0;"/></g><!--reverse link LinkExtractor to LinkExtractorJsoup--><g id="link_LinkExtractor_LinkExtractorJsoup"><path codeLine="108" d="M3994,696.2737 C3994,744.4137 3994,814.0537 3994,854.6637 " fill="none" id="LinkExtractor-backto-LinkExtractorJsoup" style="stroke:#181818;stroke-width:1.0;stroke-dasharray:7.0,7.0;"/><polygon fill="none" points="3987,696.1637,3994,676.1637,4001,696.1637,3987,696.1637" style="stroke:#181818;stroke-width:1.0;"/></g><!--reverse link TextProcessor to WebTextProcessor--><g id="link_TextProcessor_WebTextProcessor"><path codeLine="109" d="M3423,705.4737 C3423,749.3537 3423,807.0437 3423,845.6137 " fill="none" id="TextProcessor-backto-WebTextProcessor" style="stroke:#181818;stroke-width:1.0;stroke-dasharray:7.0,7.0;"/><polygon fill="none" points="3416,705.1837,3423,685.1837,3430,705.1837,3416,705.1837" style="stroke:#181818;stroke-width:1.0;"/></g><!--reverse link AsyncConfigurer to SpringAsyncConfig--><g id="link_AsyncConfigurer_SpringAsyncConfig"><path codeLine="110" d="M921.76,245.4837 C892.5,332.7637 826.17,530.6437 799.95,608.8337 " fill="none" id="AsyncConfigurer-backto-SpringAsyncConfig" style="stroke:#181818;stroke-width:1.0;stroke-dasharray:7.0,7.0;"/><polygon fill="none" points="915.21,243.0137,928.2,226.2837,928.48,247.4637,915.21,243.0137" style="stroke:#181818;stroke-width:1.0;"/></g><!--reverse link AbstractVisitedTrackerDeque to AddAllBfs--><g id="link_AbstractVisitedTrackerDeque_AddAllBfs"><path codeLine="111" d="M2009,991.1037 C2027.4,1007.7937 2045.23,1023.9637 2059.9,1037.2637 " fill="none" id="AbstractVisitedTrackerDeque-backto-AddAllBfs" style="stroke:#181818;stroke-width:1.0;"/><polygon fill="none" points="2004.28,996.2737,1994.17,977.6437,2013.69,985.9037,2004.28,996.2737" style="stroke:#181818;stroke-width:1.0;"/></g><!--reverse link AbstractLimiter to DfsLimiter--><g id="link_AbstractLimiter_DfsLimiter"><path codeLine="112" d="M2531.9,982.0537 C2509.36,1001.9037 2486.99,1021.6037 2469.14,1037.3137 " fill="none" id="AbstractLimiter-backto-DfsLimiter" style="stroke:#181818;stroke-width:1.0;"/><polygon fill="none" points="2527.45,976.6437,2547.08,968.6837,2536.7,987.1537,2527.45,976.6437" style="stroke:#181818;stroke-width:1.0;"/></g><!--reverse link ApplicationEvent to DataReadyEvent--><g id="link_ApplicationEvent_DataReadyEvent"><path codeLine="113" d="M1172.29,244.8937 C1182.74,269.4737 1195.75,301.2637 1206,330.0137 C1238.26,420.5537 1269.57,528.2137 1286.96,590.3237 " fill="none" id="ApplicationEvent-backto-DataReadyEvent" style="stroke:#181818;stroke-width:1.0;"/><polygon fill="none" points="1165.71,247.3137,1164.24,226.1737,1178.57,241.7737,1165.71,247.3137" style="stroke:#181818;stroke-width:1.0;"/></g><!--reverse link TextExtractor to TextExtractorJsoup--><g id="link_TextExtractor_TextExtractorJsoup"><path codeLine="114" d="M3702,696.2737 C3702,744.4137 3702,814.0537 3702,854.6637 " fill="none" id="TextExtractor-backto-TextExtractorJsoup" style="stroke:#181818;stroke-width:1.0;stroke-dasharray:7.0,7.0;"/><polygon fill="none" points="3695,696.1637,3702,676.1637,3709,696.1637,3695,696.1637" style="stroke:#181818;stroke-width:1.0;"/></g><!--reverse link Crawler to WebCrawler--><g id="link_Crawler_WebCrawler"><path codeLine="115" d="M1644.3,695.7437 C1634.17,734.3637 1620.35,787.0437 1609.76,827.4137 " fill="none" id="Crawler-backto-WebCrawler" style="stroke:#181818;stroke-width:1.0;stroke-dasharray:7.0,7.0;"/><polygon fill="none" points="1637.59,693.7337,1649.44,676.1637,1651.13,697.2937,1637.59,693.7337" style="stroke:#181818;stroke-width:1.0;"/></g><!--reverse link StatisticsService to WebCrawler--><g id="link_StatisticsService_WebCrawler"><path codeLine="116" d="M198.48,681.1437 C223.16,704.1237 257.76,731.8137 294,746.5137 C497.47,829.0437 1135.69,867.3537 1435.48,881.1537 " fill="none" id="StatisticsService-backto-WebCrawler" style="stroke:#181818;stroke-width:1.0;stroke-dasharray:7.0,7.0;"/><polygon fill="none" points="193.28,685.8537,183.77,666.9137,203.01,675.7937,193.28,685.8537" style="stroke:#181818;stroke-width:1.0;"/></g><!--reverse link Limiter to AbstractLimiter--><g id="link_Limiter_AbstractLimiter"><path codeLine="117" d="M2637,705.4937 C2637,736.6437 2637,774.7537 2637,808.0337 " fill="none" id="Limiter-backto-AbstractLimiter" style="stroke:#181818;stroke-width:1.0;stroke-dasharray:7.0,7.0;"/><polygon fill="none" points="2630,705.1837,2637,685.1837,2644,705.1837,2630,705.1837" style="stroke:#181818;stroke-width:1.0;"/></g><!--reverse link AbstractLimiter to BfsLimiter--><g id="link_AbstractLimiter_BfsLimiter"><path codeLine="118" d="M2742.1,982.0537 C2764.64,1001.9037 2787.01,1021.6037 2804.86,1037.3137 " fill="none" id="AbstractLimiter-backto-BfsLimiter" style="stroke:#181818;stroke-width:1.0;"/><polygon fill="none" points="2737.3,987.1537,2726.92,968.6837,2746.55,976.6437,2737.3,987.1537" style="stroke:#181818;stroke-width:1.0;"/></g><!--reverse link DocumentProvider to DocumentProviderJsoup--><g id="link_DocumentProvider_DocumentProviderJsoup"><path codeLine="119" d="M4283,696.4637 C4283,741.2037 4283,804.3937 4283,845.6537 " fill="none" id="DocumentProvider-backto-DocumentProviderJsoup" style="stroke:#181818;stroke-width:1.0;stroke-dasharray:7.0,7.0;"/><polygon fill="none" points="4276,696.1637,4283,676.1637,4290,696.1637,4276,696.1637" style="stroke:#181818;stroke-width:1.0;"/></g><!--SRC=[pLXRRzem57xFhuZK5r2fVm52uZQfLQjL1TR7oYGcU4tip7Oeh8NVlcF78GcNGGZIzZ2nStpiS_lE9SLJgGJsbEk5M4fNpl4ApIZ3OIpuJ-8fz46cdi0a90B1xmVyIXHIzgvllGEpQn_uGILLn1-dx07vbH3tqxbnpV_QavVxZXkz9IAKOsv4dLjtodb8C7EnxpT0e0ciJsoVMnSEks7O615b7caMxb4vZ6ArQXHv7cSAKoQp1-77ZJaye0dAb2lfRmB4sW62Y1dsoDbEH-2WGDjx4ZscBF1pKpA0ieGy2muYahAWOKFp256puMc5d0KjUAa9DxLL0L434gkviUpYL9XG3MOI32f5jnp0inIGfKa35qYRFSoe1ycJs3p_I6Nwe6j5jPni3BYNH4GxLb7DAvcEWR9Xuy8e6Ia10GHiWYFwj94ocfd-bEou2ix6NBEs4kU5aRCP3T0erdUwSiMylk4OvSCbyH8mJIV7d6MCAl397IpWPjVHpN57DrToz3XUUgVnKhLK2gxsKvvnSi6fxngX2s2U5X-0Eo-wsukBxZniBW37Q80LVY7ONmqrQVpG1SkIQC8ejBPd712PCqqLvEHzmBX8hP2L86dZjeNZyRivmZHmofKw9bBbePT4JMBJ20sfuD2AZmsiUZH8GLMMwMUW7FD3nzjR5fULAt_Vx6BjayCMLkmpMo11cyaXULk6f2K9y_kMSrEkFciBJ3bZpIiNVh7ZQPknWWlKaxffv5Jre4n4E6GUzwsTdrA_vQstKJ5d85He0pMgTBzOIZDjEw0tnxl4vi1OtXmPovlYMDwKnpA-R27PcytPNfAtYnktN5JHMrfhS92PoVWJNff138xjyasbftnjSVJcQy4ozP14CH5srQWnr5DtUjVgTdM7rROyYyFgEfMPwymkWbiB2i3FMy7tM54ErzkPICV4rX8PfZ9Qd-bSVHFSjEFq_EAM_vnCGohdnOOHfwn-8XMFZ5030jQo_yxKTSzyiYo-ciG-LgHXEiwuqx8BhFRW2SV0qNvPglO6KbhgJ5BFsEVgADnDhj5vJbxNZkDSev-rln2wxkUDSzsFfVRNtLsTfT-fYuBJ4VhRHu5JTmskedxtOy7X8a3IRF4pWIFomSKxajwS-0d4Aa2OCQu7A6UeiEKduZnS7Fb8-9_otpkL_ogZif8bktlvmLJeYGNvGjqu3gbd4f6kqwTL7Mh9JjqfLWLh- -kfS_5NK8Kcb2-g1zJfU0fOdqmU8SoGlyHJW6UKxvmZ8XRK8rVJMV5l8fNwxIb8_bDivrkOSuMvLmLw1pUYFm00]--></g></svg>