<svg id="Layer_1" data-name="Layer 1" xmlns="http://www.w3.org/2000/svg" xmlns:xlink="http://www.w3.org/1999/xlink" viewBox="0 0 78.87898 106.97452"><defs><linearGradient id="linear-gradient" x1="3.94439" y1="36.93946" x2="74.93459" y2="36.93946" gradientUnits="userSpaceOnUse"><stop offset="0" stop-color="#fcee21"/><stop offset="1" stop-color="#29abe2"/></linearGradient></defs><path d="M37.22539,60.96546l-2.91069,3.8621a1.9401,1.9401,0,1,1-3.11061-2.3195l4.7414-6.3662a1.94016,1.94016,0,0,1,2.7151-.3956l.7804.9384,6.1369,8.1429a1.9401,1.9401,0,1,0,3.1106-2.3195L46.2717,59.123,37.848,47.15256a1.9182,1.9182,0,0,1,3.1861-2.137L59.04949,69.747H19.8327l15.50159-21.3362m-5.3077-9.8204-25.0822-8.1497L17.063,67.73816l17.9539-24.7761a1.91822,1.91822,0,1,0-3.017-2.3698l-8.7814,11.7104-2.4726,3.3446a1.94009,1.94009,0,1,1-3.16719-2.2416l5.848-8.3528.65129-1.0322a1.94016,1.94016,0,0,0-1.2152-2.46l-7.5199-2.5421a1.94013,1.94013,0,0,0-1.2447,3.6752l4.5726,1.5747m19.0553-13.7607V4.13476L5.999,27.18586l29.1116,9.4189a1.91819,1.91819,0,1,0,1.3215-3.6016l-13.8509-4.7329-3.945-1.3181a1.9401,1.9401,0,1,1,1.1531-3.7049l9.7511,2.9806,1.183.3005a1.94019,1.94019,0,0,0,1.9641-1.9159l.0939-7.9374a1.9401,1.9401,0,1,0-3.8799-.0481l-.0847,4.8354m18.9757,13.8704,25.08221-8.1497L41.14759,4.132l.038,30.5974a1.91825,1.91825,0,0,0,3.8338.1438l.221-14.6355.0345-4.1592a1.9401,1.9401,0,1,1,3.8799-.0482l.1786,10.1949.0797,1.2179a1.94015,1.94015,0,0,0,2.4291,1.2759l7.5779-2.3634a1.9401,1.9401,0,1,0-1.1531-3.7049l-4.625,1.4137m-7.3277,22.3331,15.5016,21.3362,12.1187-37.2974-29.088,9.4912a1.91823,1.91823,0,1,0,1.0478,3.6906l13.9876-4.3124,3.9663-1.2525a1.94013,1.94013,0,0,1,1.2447,3.6752l-9.6407,3.3202-1.1337.4522a1.9401,1.9401,0,0,0-.4628,2.7044l4.5895,6.4767a1.9401,1.9401,0,1,0,3.1672-2.2416l-2.7737-3.9617m-19.8915-18.2362" style="fill:none;stroke-linecap:round;stroke-linejoin:round;stroke-width:2px;stroke:url(#linear-gradient)"/><text transform="translate(19.84084 87.42048)" style="font-size:18.781389236450195px;fill:#fff;font-family:MicrosoftTaiLe, Microsoft Tai Le;letter-spacing:-0.09998885938934626em">SHAY</text><text transform="translate(17.80666 98.96051)" style="font-size:11.276579856872559px;fill:#b3b3b3;font-family:MicrosoftTaiLe, Microsoft Tai Le">MEALEM</text></svg>